<svg width="159" height="88" viewBox="0 0 159 88" fill="none" xmlns="http://www.w3.org/2000/svg">
<g id="Group">
<g id="Group_2">
<g id="Group_3">
<g id="Group_4">
<g id="Group_5">
<path id="Vector" d="M79.497 0.041251C104.643 0.041251 129.756 0.041251 154.902 0.041251C158.268 0.041251 158.829 0.602249 158.829 3.96825C158.829 11.0632 158.829 18.1582 158.829 25.2532C158.829 27.9922 158.169 28.6192 155.397 28.6852C146.949 28.8172 140.283 35.5492 140.316 43.9312C140.349 52.2142 147.081 58.8802 155.463 58.9462C158.103 58.9792 158.829 59.6392 158.829 62.2792C158.829 69.5722 158.829 76.8982 158.829 84.1912C158.829 86.7982 158.037 87.5573 155.463 87.5573C104.775 87.5573 54.054 87.5573 3.366 87.5573C0.792 87.5573 0 86.7652 0 84.1912C0 76.8982 0 69.5722 0 62.2792C0 59.7712 0.495 59.2102 3.003 58.8472C10.527 57.7912 16.137 52.1482 16.566 45.1192C17.028 37.4302 12.54 31.0612 5.313 29.1803C4.323 28.9163 3.3 28.8172 2.31 28.6852C0.891 28.4872 0.0329998 27.6623 0.0329998 26.2102C-1.89319e-07 18.3232 -1.89319e-07 10.4033 0.0329998 2.51625C0.0329998 0.965251 0.99 0.206251 2.475 0.041251C3.003 -0.024749 3.564 0.00824899 4.092 0.00824899C29.238 0.041249 54.351 0.041251 79.497 0.041251Z" fill="url(#paint0_linear_2166_60511)"/>
<path id="Vector_2" opacity="0.49" d="M79.497 0.041251C104.643 0.041251 129.756 0.041251 154.902 0.041251C158.268 0.041251 158.829 0.602249 158.829 3.96825C158.829 11.0632 158.829 18.1582 158.829 25.2532C158.829 27.9922 158.169 28.6192 155.397 28.6852C146.949 28.8172 140.283 35.5492 140.316 43.9312C140.349 52.2142 147.081 58.8802 155.463 58.9462C158.103 58.9792 158.829 59.6392 158.829 62.2792C158.829 69.5722 158.829 76.8982 158.829 84.1912C158.829 86.7982 158.037 87.5573 155.463 87.5573C104.775 87.5573 54.054 87.5573 3.366 87.5573C0.792 87.5573 0 86.7652 0 84.1912C0 76.8982 0 69.5722 0 62.2792C0 59.7712 0.495 59.2102 3.003 58.8472C10.527 57.7912 16.137 52.1482 16.566 45.1192C17.028 37.4302 12.54 31.0612 5.313 29.1803C4.323 28.9163 3.3 28.8172 2.31 28.6852C0.891 28.4872 0.0329998 27.6623 0.0329998 26.2102C-1.89319e-07 18.3232 -1.89319e-07 10.4033 0.0329998 2.51625C0.0329998 0.965251 0.99 0.206251 2.475 0.041251C3.003 -0.024749 3.564 0.00824899 4.092 0.00824899C29.238 0.041249 54.351 0.041251 79.497 0.041251Z" fill="url(#paint1_linear_2166_60511)"/>
<path id="Vector_3" opacity="0.45" d="M79.497 0.041251C104.643 0.041251 129.756 0.041251 154.902 0.041251C158.268 0.041251 158.829 0.602249 158.829 3.96825C158.829 11.0632 158.829 18.1582 158.829 25.2532C158.829 27.9922 158.169 28.6192 155.397 28.6852C146.949 28.8172 140.283 35.5492 140.316 43.9312C140.349 52.2142 147.081 58.8802 155.463 58.9462C158.103 58.9792 158.829 59.6392 158.829 62.2792C158.829 69.5722 158.829 76.8982 158.829 84.1912C158.829 86.7982 158.037 87.5573 155.463 87.5573C104.775 87.5573 54.054 87.5573 3.366 87.5573C0.792 87.5573 0 86.7652 0 84.1912C0 76.8982 0 69.5722 0 62.2792C0 59.7712 0.495 59.2102 3.003 58.8472C10.527 57.7912 16.137 52.1482 16.566 45.1192C17.028 37.4302 12.54 31.0612 5.313 29.1803C4.323 28.9163 3.3 28.8172 2.31 28.6852C0.891 28.4872 0.0329998 27.6623 0.0329998 26.2102C-1.89319e-07 18.3232 -1.89319e-07 10.4033 0.0329998 2.51625C0.0329998 0.965251 0.99 0.206251 2.475 0.041251C3.003 -0.024749 3.564 0.00824899 4.092 0.00824899C29.238 0.041249 54.351 0.041251 79.497 0.041251Z" fill="url(#paint2_linear_2166_60511)"/>
</g>
</g>
<g id="Group_6">
<g id="Group_7">
<path id="Vector_4" d="M101.178 68.4161C97.977 68.4161 94.908 68.4161 91.674 68.4161C91.641 68.3171 91.608 68.1851 91.542 68.0861C87.912 61.9151 84.282 55.7771 80.652 49.5731C80.52 49.3421 80.388 49.2761 80.124 49.2761H67.617C66.891 49.2761 66.297 49.8701 66.297 50.5961V61.1561C66.297 63.5981 66.297 65.9741 66.297 68.4161C63.426 68.4161 57.684 68.4161 57.684 68.4161C57.684 68.4161 57.651 68.1191 57.717 67.9871V48.9791C57.651 47.9891 57.75 46.9991 57.915 46.0421C58.377 43.6331 59.796 42.0821 62.205 41.5211C63.129 41.3231 64.119 41.1911 65.043 41.1911C71.412 41.1581 77.781 41.1911 84.117 41.1581C84.645 41.1581 85.14 41.1581 85.668 41.0591C88.176 40.6961 89.958 39.4091 90.783 36.9671C91.212 35.7791 91.311 34.5251 91.146 33.2711C90.816 30.7961 89.529 29.0471 87.12 28.2221C86.13 27.8921 85.074 27.7931 84.051 27.8261H58.113H57.717C57.717 27.8261 57.717 22.0841 57.717 19.2461C57.882 19.2461 57.981 19.2461 58.113 19.2461C66.891 19.2461 75.702 19.2461 84.447 19.2461C86.295 19.2461 88.143 19.4441 89.925 19.9721C94.512 21.2591 97.68 24.0971 99.198 28.6511C100.254 31.8851 100.287 35.1851 99.462 38.4851C98.307 43.2701 95.469 46.6691 90.75 48.4181C90.42 48.5171 90.123 48.6161 89.76 48.7481C89.859 48.9131 89.925 49.0451 89.991 49.1441C92.631 53.6651 95.238 58.2191 97.878 62.7731C99 64.6871 100.089 66.5681 101.178 68.4161Z" fill="#272727"/>
</g>
</g>
</g>
</g>
</g>
<defs>
<linearGradient id="paint0_linear_2166_60511" x1="79.4175" y1="0.040293" x2="79.4175" y2="87.574" gradientUnits="userSpaceOnUse">
<stop offset="1.06556e-07" stop-color="white"/>
<stop offset="1" stop-color="#CCCCCC"/>
</linearGradient>
<linearGradient id="paint1_linear_2166_60511" x1="117.752" y1="-22.6163" x2="41.0614" y2="110.217" gradientUnits="userSpaceOnUse">
<stop offset="0.1266" stop-color="#FF653F" stop-opacity="0.2"/>
<stop offset="0.4227" stop-color="#FF7BAC" stop-opacity="0"/>
</linearGradient>
<linearGradient id="paint2_linear_2166_60511" x1="41.0613" y1="110.217" x2="117.752" y2="-22.6163" gradientUnits="userSpaceOnUse">
<stop offset="0.1266" stop-color="#510094" stop-opacity="0.1"/>
<stop offset="0.4227" stop-color="#FF7BAC" stop-opacity="0"/>
</linearGradient>
</defs>
</svg>
