<svg width="111" height="17" viewBox="0 0 111 17" fill="none" xmlns="http://www.w3.org/2000/svg">
<path d="M1.58887 16.2256C0.643555 16.2256 0.0205078 15.6348 0.0205078 14.5928V5.82715C0.0205078 4.82812 0.632812 4.24805 1.53516 4.24805C2.41602 4.24805 3.01758 4.82812 3.01758 5.82715V6.5791H3.08203C3.38281 5.15039 4.32812 4.30176 5.47754 4.30176C5.89648 4.30176 6.22949 4.39844 6.45508 4.5918C6.75586 4.82812 6.90625 5.21484 6.90625 5.75195C6.90625 6.24609 6.75586 6.62207 6.45508 6.87988C6.1543 7.1377 5.70312 7.27734 5.09082 7.28809C3.66211 7.30957 3.15723 8.11523 3.15723 9.47949V14.5928C3.15723 15.6348 2.54492 16.2256 1.58887 16.2256ZM13.3726 16.2471C9.89215 16.2471 7.66852 14.0127 7.66852 10.2314C7.66852 6.50391 9.92437 4.2373 13.3726 4.2373C16.8209 4.2373 19.0767 6.49316 19.0767 10.2314C19.0767 14.0234 16.8531 16.2471 13.3726 16.2471ZM13.3726 13.8516C14.9087 13.8516 15.8863 12.5518 15.8863 10.2422C15.8863 7.9541 14.898 6.63281 13.3726 6.63281C11.8472 6.63281 10.8482 7.9541 10.8482 10.2422C10.8482 12.5518 11.8257 13.8516 13.3726 13.8516ZM26.3917 16.2471C22.922 16.2471 20.7198 13.9697 20.7198 10.2422C20.7198 6.55762 22.9112 4.2373 26.3702 4.2373C28.6798 4.2373 30.6027 5.35449 31.2257 6.9873C31.3331 7.25586 31.3976 7.53516 31.3976 7.76074C31.3976 8.53418 30.796 8.98535 30.0548 8.98535C29.4318 8.98535 29.0558 8.73828 28.7335 8.16895C28.1642 7.15918 27.4659 6.69727 26.4669 6.69727C24.8771 6.69727 23.8995 8.00781 23.8995 10.2314C23.8995 12.498 24.8771 13.7871 26.4454 13.7871C27.5411 13.7871 28.2179 13.25 28.7013 12.4336C29.1202 11.7783 29.464 11.5098 30.13 11.5098C30.8605 11.5098 31.4513 11.9932 31.4513 12.7666C31.4513 13.0137 31.3868 13.2715 31.2472 13.583C30.5597 15.1514 28.5939 16.2471 26.3917 16.2471ZM35.2106 16.2256C34.2975 16.2256 33.6423 15.667 33.6423 14.5928V1.90625C33.6423 0.832031 34.2975 0.262695 35.2106 0.262695C36.1345 0.262695 36.779 0.832031 36.779 1.90625V9.0498H36.822L40.9899 4.87109C41.4089 4.43066 41.7634 4.24805 42.236 4.24805C43.0417 4.24805 43.6325 4.83887 43.6325 5.6123C43.6325 6.08496 43.4929 6.375 43.0417 6.79395L40.1091 9.56543L43.321 13.6582C43.6647 14.1201 43.7614 14.3994 43.7614 14.8076C43.7614 15.6455 43.1491 16.2256 42.2682 16.2256C41.6022 16.2256 41.2262 15.9893 40.7321 15.248L37.778 11.3379L36.779 12.2617V14.5928C36.779 15.667 36.1345 16.2256 35.2106 16.2256ZM50.6037 16.2471C47.0051 16.2471 44.8889 14.0234 44.8889 10.2959C44.8889 6.58984 47.0481 4.2373 50.4534 4.2373C53.719 4.2373 55.9104 6.47168 55.9104 9.59766C55.9104 10.4678 55.4162 10.9619 54.5461 10.9619H47.9719V11.1016C47.9719 12.8096 49.0032 13.9268 50.593 13.9268C51.7424 13.9268 52.4944 13.54 53.343 12.541C53.676 12.1973 53.9553 12.0791 54.3635 12.0791C55.0403 12.0791 55.5881 12.5088 55.5881 13.2285C55.5881 13.4756 55.5129 13.7334 55.3733 13.9912C54.6106 15.4092 52.8274 16.2471 50.6037 16.2471ZM48.0041 9.03906H52.8918C52.8274 7.53516 51.8606 6.55762 50.4856 6.55762C49.1106 6.55762 48.1116 7.56738 48.0041 9.03906ZM58.8104 13.0566V6.84766H58.2088C57.4676 6.84766 56.9949 6.39648 56.9949 5.66602C56.9949 4.93555 57.4676 4.48438 58.2088 4.48438H58.8104V3.20605C58.8104 2.19629 59.4012 1.57324 60.3787 1.57324C61.3563 1.57324 61.9471 2.19629 61.9471 3.20605V4.48438H63.0535C63.7947 4.48438 64.2566 4.94629 64.2566 5.66602C64.2566 6.38574 63.7947 6.84766 63.0535 6.84766H61.9471V12.3584C61.9471 13.1748 62.2264 13.5186 62.9031 13.5723L63.1072 13.5938C63.8807 13.6797 64.2996 14.002 64.2996 14.7324C64.2996 15.6562 63.3973 16.1289 62.076 16.1289H61.9686C59.8738 16.1289 58.8104 15.0869 58.8104 13.0566ZM74.4394 16.2256C73.5263 16.2256 72.871 15.667 72.871 14.5928V1.87402C72.871 0.864258 73.4511 0.262695 74.4179 0.262695C75.3847 0.262695 75.954 0.864258 75.954 1.87402V6.53613H76.0185C76.6308 5.08594 77.8876 4.26953 79.6386 4.26953C82.1952 4.26953 83.6562 5.92383 83.6562 8.58789V14.5928C83.6562 15.667 83.0116 16.2256 82.0878 16.2256C81.1747 16.2256 80.5195 15.667 80.5195 14.5928V9.25391C80.5195 7.77148 79.789 6.86914 78.3603 6.86914C76.8779 6.86914 76.0077 7.91113 76.0077 9.42578V14.5928C76.0077 15.667 75.3632 16.2256 74.4394 16.2256ZM90.1977 16.2148C87.7055 16.2148 86.0512 14.5928 86.0512 11.9072V5.8916C86.0512 4.81738 86.7065 4.24805 87.6196 4.24805C88.5434 4.24805 89.188 4.81738 89.188 5.8916V11.252C89.188 12.7881 89.9507 13.6045 91.3364 13.6045C92.7329 13.6045 93.603 12.6055 93.603 11.0801V5.8916C93.603 4.81738 94.2583 4.24805 95.1714 4.24805C96.0952 4.24805 96.7397 4.81738 96.7397 5.8916V14.6357C96.7397 15.6777 96.1274 16.2256 95.2251 16.2256C94.3227 16.2256 93.7104 15.6777 93.7104 14.6357V13.9268H93.646C93.0766 15.377 91.938 16.2148 90.1977 16.2148ZM100.832 16.2256C99.9297 16.2256 99.2959 15.6885 99.2959 14.6357V1.90625C99.2959 0.832031 99.9512 0.262695 100.864 0.262695C101.788 0.262695 102.433 0.832031 102.433 1.90625V6.48242H102.497C103.131 5.11816 104.42 4.30176 106.053 4.30176C108.964 4.30176 110.736 6.52539 110.736 10.2422C110.736 13.9482 108.975 16.1826 106.064 16.1826C104.377 16.1826 103.099 15.3662 102.454 14.0234H102.39V14.6357C102.39 15.6777 101.745 16.2256 100.832 16.2256ZM104.989 13.6582C106.547 13.6582 107.524 12.3477 107.524 10.2422C107.524 8.14746 106.547 6.81543 104.989 6.81543C103.464 6.81543 102.422 8.17969 102.422 10.2422C102.422 12.3262 103.464 13.6582 104.989 13.6582Z" fill="white"/>
<path d="M68.2738 16.1289C67.307 16.1289 66.5443 15.3555 66.5443 14.3994C66.5443 13.4326 67.307 12.6699 68.2738 12.6699C69.2298 12.6699 70.0033 13.4326 70.0033 14.3994C70.0033 15.3555 69.2298 16.1289 68.2738 16.1289Z" fill="#FF4B4E"/>
</svg>
