<svg width="89" height="101" viewBox="0 0 89 101" fill="none" xmlns="http://www.w3.org/2000/svg">
<g style="mix-blend-mode:color-dodge" opacity="0.25">
<path d="M115.293 47.3968C115.099 42.2126 112.766 38.7565 107.323 38.0919C101.037 9.37941 84.1235 -7.17011 60.1466 -7.96768C49.6486 -8.3 39.7987 -6.10669 31.2447 0.340315C18.6731 9.71173 11.0912 22.1405 9.08233 38.0919C3.83334 38.69 1.30604 41.9468 1.04683 46.998C0.852428 50.7865 0.787623 54.6414 0.852426 58.4298C0.98203 66.0067 3.18532 68.5323 10.508 69.8616C10.2488 74.4476 14.5905 77.505 14.5257 82.0245C14.5257 86.1453 16.1458 89.0697 19.6451 90.9307C45.3069 104.356 70.9686 104.356 96.6951 90.9307C99.028 89.6679 101.491 87.8734 101.361 85.2148C101.037 79.2995 105.638 75.2452 106.027 69.7287C112.313 69.197 114.969 66.6049 115.423 60.2243C115.617 56.0371 115.488 51.717 115.293 47.3968ZM102.851 66.1396C101.62 77.9038 94.4918 84.6166 84.3827 88.4051C67.2101 94.8521 49.9078 94.8521 32.6704 88.6709C20.2931 84.2843 13.2945 75.5775 13.1001 61.753C13.0353 58.6292 12.7761 55.5054 12.5817 52.3816C12.4521 38.3577 13.9425 24.7991 23.0796 13.3673C34.8089 -1.32129 53.8608 -7.50243 71.0334 -2.05239C88.9837 3.66351 101.491 19.6813 103.175 39.0888C104.018 48.1279 103.759 57.1005 102.851 66.1396Z" fill="white"/>
<path d="M101.021 52.5922C100.956 59.1721 101.474 65.8185 98.9471 72.1991C97.6511 75.4558 95.9014 78.2473 92.7261 79.776C69.7213 91.2742 46.7164 91.2078 23.7116 79.8424C17.9442 76.9845 16.1297 71.2686 15.7409 65.4197C14.7688 51.7946 14.3152 38.1695 19.5642 25.1426C27.0165 6.73206 43.6059 -3.56985 62.2042 -1.50947C81.7097 0.683844 95.9662 14.7077 99.6599 35.2451C100.762 41.0275 101.021 46.7434 101.021 52.5922Z" fill="white"/>
<path d="M42.5078 5.71927C58.9676 -3.25336 81.7781 4.52292 91.1096 22.4682C98.5619 36.8244 97.9786 52.3105 96.1642 67.7966C95.905 69.9899 94.4145 72.0503 93.5073 74.1107C91.4984 71.718 89.5543 69.3253 87.9991 66.6003C87.9343 66.3344 87.9991 66.135 88.0639 65.8692C90.5264 61.6819 90.5264 56.963 90.7856 52.3105C91.0448 47.0599 90.2024 41.8757 89.6839 36.625C89.1007 31.3744 86.5734 27.5194 82.3613 24.6615C80.3524 23.2658 78.3435 21.87 75.881 21.3383C71.0209 19.6767 66.0311 19.145 60.9765 18.8791C58.838 18.8127 56.6995 18.8127 54.5611 18.8791C53.8482 19.0121 53.1354 18.9456 52.4874 18.8127C52.1634 18.6797 51.7746 18.5468 51.5801 18.2145C49.8953 16.0212 48.0808 13.8943 46.72 11.4352C46.6552 10.9699 46.9792 10.7041 47.2384 10.3717C47.7568 9.70711 48.016 9.04247 47.4328 8.2449C46.9144 7.5138 46.2663 7.58026 45.5535 7.84612C45.1647 7.97905 44.7759 8.17844 44.3871 8.04551C43.4151 7.64673 42.767 6.84916 42.5078 5.71927Z" fill="#E55900"/>
<path d="M53.2752 83.7294C44.6564 83.3971 36.3617 81.7355 28.4558 78.08C22.4292 75.2885 19.7723 70.3701 19.4483 64.0561C18.8651 51.4279 18.2171 38.6668 23.2069 26.6369C23.8549 25.0417 24.6973 23.513 25.4749 21.9844C26.9006 22.3832 27.095 23.646 27.5486 24.8423C27.5486 25.5734 27.2246 26.1716 26.9006 26.7698C24.3085 32.6851 23.0773 38.9327 22.7532 45.3797C22.5588 49.3675 22.494 53.2889 22.494 57.2767C22.494 61.1981 23.2069 64.9866 24.6973 68.5756C25.4749 70.4366 26.5766 71.9653 28.1966 73.0952C30.3351 74.5574 32.668 75.7537 35.0657 76.8171C36.4265 77.4153 37.7874 77.5482 38.9538 76.4848C40.3795 75.9531 41.4811 77.0165 42.7772 77.1495C47.1837 78.08 51.6551 78.4787 56.1913 78.8775C58.0705 79.808 58.7834 81.6026 59.3018 83.8623C57.1633 83.7959 55.2192 83.9953 53.2752 83.7294Z" fill="#FF7917"/>
<path d="M53.2734 83.7569C55.0879 83.7569 56.9024 83.7569 59.1057 83.7569C58.004 82.0288 57.7448 80.2343 56.1895 79.3038C56.8376 78.4398 57.8096 78.7056 58.652 78.7056C63.577 78.7721 68.4372 78.1739 73.2326 76.9111C78.8056 75.4489 83.6009 72.7239 86.9707 67.8056C87.2947 67.3403 87.6187 66.8086 88.2667 66.8086C90.146 69.1348 92.2197 71.3281 93.5157 74.1196C86.3226 80.3008 77.5095 82.1618 68.5668 83.2917C63.5122 84.0228 58.3928 84.4215 53.2734 83.7569Z" fill="#F66800"/>
<path d="M27.348 24.5437C26.7 23.6797 26.1168 22.8157 25.4688 21.9516C29.4217 14.6406 34.9299 9.05763 42.447 5.66797C43.095 6.46554 43.743 7.19664 44.3262 7.99421C44.4558 8.72531 43.8726 8.99117 43.4838 9.38995C42.8358 10.0546 42.447 10.7192 43.0302 11.5833C43.6134 12.4473 44.4558 12.1814 45.2335 11.8491C45.7519 11.5833 46.2055 11.1845 46.7887 11.4503C48.5384 13.7766 50.3529 16.1028 52.1025 18.429C51.5841 19.2266 50.8065 19.2266 50.0289 19.2931C47.1776 19.5589 44.391 20.0242 41.6045 20.8217C38.6884 21.3535 36.1611 22.8157 33.7635 24.4108C33.1802 24.8096 32.7266 25.3413 31.949 25.2748C31.2362 24.4773 31.949 23.8791 32.3378 23.3474C34.2171 20.4894 36.55 18.1632 39.2069 16.0363C39.7253 15.6376 40.3085 15.1723 40.6325 14.5741C40.9565 13.976 41.0213 13.3778 40.5677 12.7796C40.1789 12.2479 39.5957 12.2479 39.0125 12.3808C38.4292 12.5802 37.9108 12.979 37.4572 13.3778C33.9579 16.2357 30.977 19.426 28.6441 23.3474C28.3849 23.8791 28.1905 24.6102 27.348 24.5437Z" fill="#F66800"/>
<path d="M41.3011 20.4158C44.8005 19.153 48.559 19.0201 52.1879 18.4219C52.9008 18.4219 53.6784 18.4883 54.3912 18.4883C56.6593 18.6877 58.9274 18.6877 61.1955 18.4883C66.3148 18.5548 71.3046 19.0865 76.1648 20.9475C80.701 23.739 83.4227 28.1256 85.7556 32.7116C86.598 34.3068 87.246 35.9684 87.7644 37.6964C88.2828 39.4245 88.0884 40.0891 86.4684 40.6873C82.4506 42.2824 78.4977 43.944 74.4799 45.5392C73.8967 45.805 73.3135 45.938 72.6655 45.6721C69.6846 43.3459 68.6477 40.355 69.555 36.5001C71.1102 35.7025 72.7951 36.0348 74.4799 36.1678C76.0352 36.4336 77.5905 36.8989 79.0809 35.9684C79.5345 34.5062 79.4697 33.1104 79.0809 31.6482C78.7569 31.3159 78.3681 31.3159 77.9145 31.3159C75.7112 31.3159 73.5079 31.3159 71.2398 31.3159C70.7214 31.3159 70.203 31.3159 69.8142 31.7811C69.2309 33.908 69.2958 36.1013 69.3606 38.2281C69.4254 40.6873 68.9069 42.6812 67.2869 44.6087C65.7964 46.3367 64.5004 48.2642 63.0747 50.0587C62.8803 50.3246 62.5563 50.524 62.2971 50.6569C57.2425 52.4514 52.3175 54.7112 47.3277 56.6387C46.5501 56.971 45.8373 57.3698 44.9949 57.3033C43.8284 57.1039 43.7636 55.6417 42.7268 55.11C41.4955 56.3728 40.9123 58.0344 39.9403 59.4301C39.6811 59.696 39.4219 59.8289 39.1626 59.9619C37.0242 61.0253 34.7561 61.8229 32.5528 62.6869C30.9975 63.2851 30.2847 62.9527 29.9607 61.2911C28.9887 55.5752 28.4703 49.8593 28.9239 44.077C29.3127 39.8897 29.9607 35.769 31.5808 31.9141C33.5896 26.9957 36.5706 22.9414 41.3011 20.4158Z" fill="#FFE4C3"/>
<path d="M88.2486 66.8512C82.9348 75.558 74.4457 77.9507 65.3085 78.8812C62.2628 79.2135 59.2171 79.1471 56.1714 79.28C51.5704 79.2135 47.0343 78.5489 42.4981 77.6184C41.4613 76.8873 42.3037 76.1562 42.6925 75.6245C45.3494 72.1683 47.8119 68.5793 50.5984 65.2561C50.7928 65.0567 50.9872 64.9238 51.1816 64.8573C59.93 61.1353 68.7431 57.6792 77.4914 54.0901C77.945 53.8908 78.4634 53.6914 78.9818 53.8243C79.6947 54.0237 80.0835 54.6219 80.4723 55.1536C82.9996 58.4103 85.3325 61.7335 87.8598 64.9902C88.119 65.389 88.443 65.7213 88.2486 66.253C88.2486 66.4524 88.2486 66.6518 88.2486 66.8512Z" fill="#CB0100"/>
<path d="M88.2722 66.2776C88.0778 65.9453 87.8834 65.613 87.6242 65.2806C87.1706 64.3501 87.041 63.4197 87.1058 62.3562C87.1706 59.2989 86.5874 56.308 86.1985 53.2507C86.1337 52.8519 86.0689 52.3866 85.6153 52.0543C83.5417 52.3202 81.7272 53.7824 79.5887 54.1147C79.0703 53.9818 78.5519 53.9153 78.2278 53.4501C76.4782 50.9909 74.3397 48.7976 72.9141 46.0725C72.9141 45.9396 72.9141 45.7402 72.9789 45.6073C77.9038 43.6798 82.764 41.7524 87.7538 39.7585C85.8745 32.0486 81.7272 26.0669 76.1542 21.0156C83.0232 22.5443 89.1147 29.1907 90.1515 36.1694C91.3827 44.5439 92.0308 52.9183 90.4755 61.2928C90.0867 63.0873 89.6331 64.8819 88.2722 66.2776Z" fill="#FFC27D"/>
<path d="M46.873 11.4523C45.5121 12.0504 44.0217 13.9779 42.596 11.851C41.2352 9.85712 43.3089 9.05956 44.4105 7.99613C45.6418 7.33149 46.9378 6.401 48.0394 8.0626C49.0763 9.59127 47.9098 10.5882 46.873 11.4523Z" fill="white"/>
<path d="M61.1636 18.4961C58.8955 18.9613 56.6275 18.9613 54.3594 18.4961C56.6275 18.4961 58.8955 18.4961 61.1636 18.4961Z" fill="#FCE9C9"/>
<path d="M27.3378 24.5195C30.0595 19.8005 33.5588 15.7462 37.9006 12.423C39.0022 11.6255 40.1038 11.2267 41.0111 12.423C42.0479 13.6858 41.4647 14.7493 40.363 15.6798C36.9933 18.4048 33.8828 21.2627 31.8091 25.1841C32.0035 25.8487 31.6147 26.3805 31.3555 26.9786C28.569 32.3622 27.273 38.1446 26.8193 44.1928C26.4953 48.9117 26.6897 53.6307 26.5601 58.3496C26.4953 60.3435 26.8842 62.271 27.3378 64.132C28.0506 67.0564 29.4762 69.3826 32.1331 70.8449C32.846 71.3101 33.5588 71.6424 34.2716 71.9747C35.3733 72.6394 36.6693 72.9717 37.7709 73.5699C39.2614 74.3674 39.6502 75.2979 39.0022 76.6937C38.2894 78.023 37.2525 78.2224 35.8269 77.7571C27.1434 75.0321 22.2184 69.2497 22.024 59.7454C21.8944 47.7154 21.6352 35.6189 27.3378 24.5195Z" fill="white"/>
<path d="M39.0725 76.7218C39.2669 72.9998 35.5084 73.9968 33.9531 72.3352C34.0827 71.8035 34.4715 71.5376 34.9252 71.3382C39.8501 69.3443 44.6455 67.151 49.7001 65.4229C50.0889 65.3565 50.4777 65.2235 50.8665 65.5559C48.2745 69.012 45.6824 72.5346 43.0903 75.9907C42.7663 76.4559 42.0534 76.8547 42.5718 77.6523C41.4054 77.32 40.239 76.9877 39.0725 76.7218Z" fill="#E95700"/>
<path d="M32.2236 71.3332C28.789 69.9375 27.1042 67.0131 26.7154 63.6234C25.3545 51.5934 25.0953 39.5634 30.0851 28.1981C30.5387 27.1347 31.2515 26.2042 31.7699 25.2072C34.686 23.2133 37.6021 21.1529 41.2311 20.4883C26.845 31.6542 28.4002 47.0074 30.4091 62.8923C33.5844 61.6959 36.3709 60.699 39.0926 59.6356C39.4814 60.2337 39.0926 60.7654 38.8334 61.2307C37.0189 64.3545 35.1397 67.4118 33.3252 70.5356C33.1308 70.9344 32.9364 71.5326 32.2236 71.3332Z" fill="#FFC27D"/>
<path d="M72.9676 45.8607C75.0413 48.5192 77.1149 51.1778 79.1886 53.9028C79.3182 53.9693 79.3182 54.0357 79.2534 54.1022C79.1886 54.1687 79.1886 54.1687 79.1238 54.1687C70.1163 57.7577 61.1088 61.4132 52.1012 65.0023C51.842 65.1352 51.518 65.2017 51.194 65.2681C50.9348 64.6035 51.3884 64.1382 51.7124 63.673C54.6933 59.5522 57.739 55.4979 60.8495 51.4436C61.1736 50.9784 61.6272 50.5796 62.0808 50.3137C62.2752 50.1808 62.4048 50.1143 62.5992 49.9814C63.8305 48.7186 65.3857 48.3198 66.941 47.7216C68.3018 47.1235 69.6627 46.5918 71.0883 46.06C71.6715 45.7277 72.3196 45.3289 72.9676 45.8607Z" fill="#D40100"/>
<path d="M32.2344 71.3092C34.5673 67.3879 36.8353 63.4665 39.1682 59.5451C39.3626 59.4122 39.4922 59.2792 39.6866 59.1463C41.1123 57.95 42.7324 57.0859 44.6116 57.0859C45.13 57.0859 45.4541 57.4183 45.7133 57.8835C47.0741 60.2097 48.4998 62.4695 49.8606 64.7958C50.055 65.1281 50.1846 65.4604 49.9902 65.8592C44.6764 67.986 39.3626 70.1793 34.0488 72.3062C33.4656 71.9739 32.8824 71.6415 32.2344 71.3092Z" fill="#F38500"/>
<path d="M49.9679 65.8846C48.2183 63.0266 46.4038 60.1687 44.6541 57.3107C44.5893 57.2443 44.5245 57.1778 44.5893 57.1114C44.5893 57.0449 44.6541 57.0449 44.6541 57.0449C49.7735 54.9845 54.8929 52.9906 60.0123 50.9302C60.6603 50.6644 61.3732 50.5314 62.086 50.332C58.457 55.3168 54.8281 60.3016 51.1992 65.2864C51.0696 65.3529 50.94 65.4858 50.8752 65.5523C50.5512 65.6852 50.292 65.7517 49.9679 65.8846Z" fill="#FFC27D"/>
<path d="M72.9621 45.8861C69.5276 47.2819 66.0931 48.6112 62.5938 50.0069C62.6586 49.874 62.7234 49.6746 62.7882 49.6081C67.8427 44.6233 69.9812 38.5751 68.9444 31.397C68.9444 31.3305 69.0092 31.2641 69.0092 31.2641C72.4437 30.9982 75.943 30.9317 79.3776 31.2641C79.5072 32.9921 79.6368 34.7867 79.7016 36.5147C77.9519 37.0464 76.2022 36.7806 74.4526 36.6476C72.8973 36.6476 71.3421 36.6476 69.8516 36.6476C68.5556 40.4361 70.5644 43.0947 72.8325 45.5538C72.9621 45.6867 72.9621 45.7532 72.9621 45.8861Z" fill="#EC0300"/>
<path d="M46.3726 59.3036C46.3726 59.37 46.3726 59.5029 46.3726 59.5694C44.6877 60.1676 43.0029 60.8322 41.3828 61.4304C42.3548 59.7688 43.2621 58.0407 44.3637 56.1133C45.1413 57.3096 45.7894 58.3066 46.3726 59.3036Z" fill="#FAC903"/>
<path d="M79.4667 31.236C75.9674 31.236 72.4681 31.3025 68.9688 31.3025C72.4681 30.5049 75.9674 30.7043 79.4667 31.236Z" fill="#FFEFCC"/>
<path d="M74.6016 36.6095C76.3512 36.543 78.1009 36.4766 79.8505 36.4766C78.1009 37.2741 76.3512 37.0083 74.6016 36.6095Z" fill="#FBE8C5"/>
<path d="M79.1328 54.1277C79.1328 54.0613 79.1328 53.9948 79.1328 53.8619C81.4657 52.9314 83.7338 52.0009 86.2611 51.0039C87.2979 55.7893 87.8163 60.5083 87.6219 65.2272C84.8354 61.5717 81.9841 57.8497 79.1328 54.1277Z" fill="#F47F37"/>
</g>
</svg>
