<svg width="18" height="18" viewBox="0 0 18 18" fill="none" xmlns="http://www.w3.org/2000/svg">
  <path
    d="M5.7 3.75C2.96719 3.75 0.75 5.96719 0.75 8.7C0.75 11.4328 2.96719 13.65 5.7 13.65H12.3C15.0328 13.65 17.25 11.4328 17.25 8.7C17.25 5.96719 15.0328 3.75 12.3 3.75H5.7ZM13.5375 6.43125C13.811 6.43125 14.0733 6.5399 14.2667 6.7333C14.4601 6.92669 14.5687 7.189 14.5687 7.4625C14.5687 7.736 14.4601 7.99831 14.2667 8.1917C14.0733 8.3851 13.811 8.49375 13.5375 8.49375C13.264 8.49375 13.0017 8.3851 12.8083 8.1917C12.6149 7.99831 12.5062 7.736 12.5062 7.4625C12.5062 7.189 12.6149 6.92669 12.8083 6.7333C13.0017 6.5399 13.264 6.43125 13.5375 6.43125ZM10.8562 9.9375C10.8562 9.664 10.9649 9.40169 11.1583 9.2083C11.3517 9.0149 11.614 8.90625 11.8875 8.90625C12.161 8.90625 12.4233 9.0149 12.6167 9.2083C12.8101 9.40169 12.9187 9.664 12.9187 9.9375C12.9187 10.211 12.8101 10.4733 12.6167 10.6667C12.4233 10.8601 12.161 10.9687 11.8875 10.9687C11.614 10.9687 11.3517 10.8601 11.1583 10.6667C10.9649 10.4733 10.8562 10.211 10.8562 9.9375ZM5.08125 7.25625C5.08125 6.91336 5.35711 6.6375 5.7 6.6375C6.04289 6.6375 6.31875 6.91336 6.31875 7.25625V8.08125H7.14375C7.48664 8.08125 7.7625 8.35711 7.7625 8.7C7.7625 9.04289 7.48664 9.31875 7.14375 9.31875H6.31875V10.1437C6.31875 10.4866 6.04289 10.7625 5.7 10.7625C5.35711 10.7625 5.08125 10.4866 5.08125 10.1437V9.31875H4.25625C3.91336 9.31875 3.6375 9.04289 3.6375 8.7C3.6375 8.35711 3.91336 8.08125 4.25625 8.08125H5.08125V7.25625Z"
    fill="white" />
</svg>