<svg width="32" height="32" viewBox="0 0 32 32" fill="none" xmlns="http://www.w3.org/2000/svg">
<path d="M13.1144 31.5848L12.6417 31.1724L11.8265 31.1087C11.1167 31.0533 10.952 31.0209 10.5519 30.8582L10.0925 30.6713L9.69873 30.8368C9.36517 30.977 9.20512 31.0072 8.65208 31.0342L7.9992 31.066L7.91447 30.8616C7.86786 30.7491 7.80215 30.6572 7.76845 30.6572C7.73474 30.6572 7.39548 30.7576 7.01455 30.8804L6.32194 31.1036L6.0496 30.9645C5.71219 30.7921 5.69227 30.7922 5.10957 30.9714L4.63449 31.1175L4.17586 31.0205C3.68641 30.917 3.53037 30.9257 2.06305 31.1392L1.49465 31.2219L1.20106 31.0178C0.935741 30.8334 0.881807 30.8168 0.641043 30.8452C0.39867 30.8738 0.369094 30.8644 0.313413 30.7413C0.263726 30.6313 0.276329 30.55 0.380353 30.3091C0.499761 30.0326 0.514058 29.877 0.590032 28.0267C0.66103 26.2976 0.661252 25.9663 0.591731 25.4636C0.501803 24.813 0.501917 24.8128 0.88345 24.8833C1.019 24.9083 1.13969 24.919 1.15166 24.907C1.16363 24.8951 1.20228 24.0332 1.23755 22.9917C1.29615 21.2615 1.28017 20.7352 1.169 20.7328C1.14749 20.7324 1.03705 20.6504 0.923556 20.5506L0.71721 20.3693L0.542811 19.3601C0.446892 18.8051 0.354875 18.082 0.338329 17.7533C0.310695 17.2044 0.318308 17.1393 0.431643 16.9544C0.499512 16.8437 0.573344 16.7531 0.595714 16.7531C0.618081 16.7531 0.709888 16.8311 0.799725 16.9264C0.889561 17.0218 1.03599 17.1526 1.12513 17.2171L1.2872 17.3345L1.24993 16.3386C1.21871 15.5043 1.19359 15.298 1.09514 15.0673C1.02876 14.9118 0.991614 14.738 1.00977 14.668C1.03144 14.5845 0.969915 14.4125 0.821147 14.1409L0.600372 13.7377L0.675118 13.077C0.735967 12.5392 0.736898 12.3347 0.680152 11.9774C0.597681 11.4581 0.421457 10.9007 0.231371 10.5579L0.0944975 10.311L0.208517 9.41173L0.322537 8.51247L0.204535 8.02148L0.0865327 7.5305L0.226485 7.00207L0.366438 6.47365L0.25921 6.1611C0.0360778 5.51072 0.031693 5.41864 0.205213 5.02714C0.508258 4.3434 0.550351 3.51141 0.342353 2.31648C0.271219 1.90783 0.228068 1.79001 0.115368 1.69677C-0.0835615 1.53217 -0.0198075 1.26836 0.26478 1.0785C0.431527 0.967251 0.468968 0.911413 0.448651 0.80427C0.425584 0.682631 0.441025 0.670596 0.609686 0.67873C0.712286 0.683678 1.2173 0.639023 1.73195 0.579491L2.66766 0.471255L3.7618 0.629326L4.85594 0.787396L6.2642 0.723399L7.67245 0.659403L7.98818 0.849969L8.30392 1.04054L9.40718 1.07701C10.8561 1.12491 11.4537 1.02524 12.3025 0.594122C12.6559 0.414619 13.0872 0.251593 13.4658 0.154425L14.0675 0L14.7552 0.216303L15.443 0.432606L16.0258 0.235841L16.6087 0.039076L17.2668 0.244973C17.7145 0.385054 18.1685 0.583723 18.6871 0.86648L19.4492 1.28209L20.3509 1.26667L21.2525 1.25125L21.2955 1.11109C21.3191 1.034 21.3911 0.788016 21.4553 0.564458L21.5722 0.157996H22.2296C22.7145 0.157996 23.1262 0.201389 23.7983 0.323362C24.2995 0.414314 24.9689 0.530032 25.2858 0.580516L25.862 0.672302L26.1786 0.529073C26.3796 0.438154 26.6839 0.364298 27.0117 0.326852C27.4753 0.273914 27.5605 0.279198 27.8429 0.378395C28.016 0.439193 28.4078 0.52853 28.7137 0.576929C29.2039 0.654485 29.3589 0.655774 30.0206 0.587794L30.7714 0.510659L31.1885 0.812581C31.4179 0.978639 31.6444 1.14527 31.6918 1.18288C31.7424 1.22302 31.8039 1.42201 31.8406 1.6647L31.9031 2.07813L31.5953 2.63869C31.3527 3.08029 31.3035 3.2095 31.3631 3.24757C31.4047 3.27415 31.4696 3.29629 31.5075 3.29676C31.5453 3.29723 31.6454 3.40293 31.7299 3.53166L31.8836 3.7657L31.9015 5.42384C31.9188 7.03688 31.8347 10.4579 31.7762 10.5168C31.7602 10.533 31.5481 10.5228 31.3049 10.4943L30.8628 10.4424L30.7965 10.7969C30.76 10.9918 30.7456 11.2491 30.7646 11.3685C30.794 11.5542 30.7668 11.642 30.5767 11.9745C30.4544 12.1883 30.3543 12.3824 30.3543 12.4057C30.3543 12.4771 30.6889 12.8943 31.0356 13.2553L31.3646 13.598L31.2429 14.0102L31.1211 14.4225L31.2747 15.4336C31.4515 16.598 31.4431 16.7164 31.1001 17.8837C30.9462 18.4076 30.9167 18.5725 30.9708 18.6062C31.0094 18.6302 31.2086 18.6669 31.4137 18.6876L31.7864 18.7254L31.8227 20.108C32.0163 27.4847 32.0304 28.454 31.9642 29.7882C31.9275 30.5282 31.8904 31.142 31.8817 31.152C31.8729 31.1621 31.4285 30.977 30.894 30.7408L29.9222 30.3112L29.4848 30.5006L29.0474 30.69L28.9985 30.9981L28.9496 31.3062L28.1087 31.4882L27.2678 31.6701L26.6839 31.4536C26.1094 31.2406 26.0931 31.238 25.6696 31.2926C25.3068 31.3394 25.188 31.3325 24.9125 31.2484L24.5857 31.1486L24.1212 31.36L23.6568 31.5715L22.7373 31.5957C22.2316 31.6092 21.5926 31.5967 21.3173 31.5682C20.7221 31.5066 19.3714 31.639 18.3405 31.8598C17.7572 31.9848 17.6402 31.9927 17.0427 31.9472C16.6815 31.9198 16.0691 31.8556 15.6817 31.8047L14.9774 31.7121L14.3443 31.8574C13.9961 31.9373 13.6833 32.0015 13.6492 32C13.615 31.9985 13.3744 31.8116 13.1144 31.5848ZM10.2504 27.0472C11.9021 26.4212 13.2409 25.8864 13.2256 25.8586C13.1863 25.7872 5.72595 18.5219 5.67581 18.5062C5.6531 18.4991 5.11256 19.9302 4.4746 21.6864L3.31467 24.8796L3.47357 25.0159C3.56097 25.0909 4.42079 25.8351 5.38427 26.6697C6.34776 27.5043 7.16109 28.1868 7.19168 28.1863C7.22226 28.1858 8.59868 27.6732 10.2504 27.0472ZM28.2404 24.0836C29.0146 22.1949 29.6587 20.6096 29.6716 20.5606C29.6889 20.4952 26.5679 18.3433 17.888 12.4359C11.3941 8.01629 6.05478 4.40022 6.02285 4.40022C5.95319 4.40022 2.59678 5.92827 2.52758 5.99149C2.50103 6.01574 2.53526 6.06918 2.60362 6.11026C2.67199 6.15134 7.2931 10.9848 12.8727 16.8512L23.0175 27.5175H24.9252H26.8328L28.2404 24.0836ZM26.4345 9.63292C26.7274 7.98322 26.9785 6.59449 26.9924 6.54686C27.0103 6.4856 26.6537 6.20274 25.7729 5.57975C25.0882 5.09547 24.5052 4.69923 24.4772 4.69923C24.4168 4.69923 17.9932 6.48982 17.9701 6.51312C17.9613 6.52196 19.7369 7.91641 21.9158 9.6119C24.0947 11.3074 25.883 12.6806 25.8897 12.6635C25.8963 12.6464 26.1415 11.2826 26.4345 9.63292Z" fill="#9B3425"/>
</svg>
