<svg width="32" height="32" viewBox="0 0 32 32" fill="none" xmlns="http://www.w3.org/2000/svg">
<path d="M0 12C0 5.37258 5.37258 0 12 0H20C26.6274 0 32 5.37258 32 12V20C32 26.6274 26.6274 32 20 32H12C5.37258 32 0 26.6274 0 20V12Z" fill="#C5412B"/>
<path d="M4.30634 19.6823L4.27344 13.1562C4.27344 13.1562 7.83667 14.3968 10.2711 14.4379L10.3105 18.6204C10.3105 18.6204 7.44523 18.6194 4.38369 19.7319" fill="black"/>
<path d="M11.5234 14.3997L13.486 14.3613L13.5252 18.6206H11.6019L11.5234 14.3997Z" fill="black"/>
<path d="M16.6656 15.2246L15.3984 16.5461L16.7473 17.8829L17.9959 16.4997L16.6656 15.2246Z" fill="black"/>
<path d="M14.7422 11.2711L18.9574 11.252L18.9966 13.2448H14.801L14.7422 11.2711Z" fill="black"/>
<path d="M20.234 17.1152L17.2344 20.0279L18.7048 21.4267L21.528 18.6214L20.234 17.1152Z" fill="black"/>
<path d="M13.5272 4.07708L20.2044 4.04492C20.2044 4.04492 18.8763 7.7 18.8343 10.0793L14.7706 10.0987C14.7706 10.0987 14.6147 7.14495 13.4766 4.15268" fill="black"/>
<path d="M27.8389 22.7735L23.1535 27.4232C23.1535 27.4232 21.4386 23.9253 19.7422 22.2183L22.5939 19.3887C22.5939 19.3887 24.8465 21.3637 27.8198 22.6851" fill="black"/>
</svg>
