<svg width="22" height="22" viewBox="0 0 22 22" fill="none" xmlns="http://www.w3.org/2000/svg">
<path fill-rule="evenodd" clip-rule="evenodd" d="M9.81922 0.0433241C9.12854 0.121451 8.07998 0.363946 7.36573 0.610764C4.25069 1.68736 1.69915 4.23995 0.618567 7.36093C-0.799159 11.4556 0.261648 15.9013 3.37468 18.9116C8.35626 23.7287 16.4544 22.7871 20.2493 16.9495C21.5406 14.9632 22.1618 12.4902 21.9639 10.1239C21.7181 7.18649 20.9029 5.65121 19.2957 5.09899C18.2282 4.73223 17.073 4.95754 16.2275 5.69753C15.115 6.67106 14.8471 8.42598 15.6221 9.66404C16.0356 10.3245 16.6907 10.8398 17.3614 11.032L17.7502 11.1433V11.3881C17.7502 12.0297 17.4194 13.2652 17.0542 13.988C16.6257 14.8359 15.8681 15.7307 15.0681 16.3337C14.4473 16.8016 13.4297 17.2952 12.6877 17.488C11.8905 17.6952 10.6828 17.7461 9.88109 17.6062C7.44691 17.1817 5.45177 15.5161 4.63325 13.2252C4.32458 12.3612 4.23085 11.7218 4.26762 10.7302C4.30475 9.72676 4.47261 9.01077 4.86476 8.18259C5.5828 6.66626 6.67955 5.59648 8.28503 4.84654C8.76131 4.62407 8.95274 4.49998 9.08265 4.32951C9.24453 4.11705 9.25365 4.07369 9.25525 3.50838C9.25749 2.73363 9.36046 2.52531 9.87523 2.25397C10.0563 2.15849 10.232 2.14451 11.2667 2.14315C12.565 2.14143 12.7018 2.11116 12.9434 1.77176C13.3624 1.18312 13.1343 0.396345 12.4673 0.129388C12.1635 0.00772602 10.5871 -0.0434504 9.81922 0.0433241ZM14.6416 1.09854C13.7295 1.51968 13.7557 2.75732 14.685 3.1457C14.9631 3.26198 15.2083 3.26198 15.4865 3.1457C16.4345 2.7495 16.4345 1.47448 15.4865 1.07828C15.1984 0.957862 14.9325 0.964259 14.6416 1.09854Z" fill="white"/>
</svg>
