<svg width="54" height="32" viewBox="0 0 54 32" fill="none" xmlns="http://www.w3.org/2000/svg">
<path d="M23.786 10.875L21.4062 21.8366H24.2909L26.5985 10.875H23.786Z" fill="#0072FF"/>
<path d="M19.6034 10.8807L16.6466 18.3086L15.4207 11.9624C15.2764 11.2413 14.6995 10.8807 14.1226 10.8807H9.29085L9.21875 11.1692C10.2284 11.3855 11.3101 11.7461 12.0313 12.1067C12.464 12.323 12.536 12.5393 12.6803 13.0442L14.9159 21.7702H17.9447L22.5601 10.8086H19.6034V10.8807Z" fill="#0072FF"/>
<path d="M42.0303 10.875H39.5784C39.0015 10.875 38.5688 11.1635 38.3525 11.6683L34.0977 21.8366H37.0544L37.6313 20.1779H41.2371L41.5977 21.8366H44.1938L42.0303 10.875ZM38.5688 17.9423L40.0832 13.8318L40.9486 17.9423H38.5688Z" fill="#0072FF"/>
<path d="M30.3528 13.9093C30.3528 13.5487 30.7134 13.116 31.5787 12.9718C32.0114 12.8996 33.0932 12.8997 34.3913 13.4766L34.896 11.1689C34.247 10.9525 33.3095 10.6641 32.2278 10.6641C29.4153 10.6641 27.4682 12.1785 27.4682 14.2698C27.4682 15.8564 28.9105 16.7217 29.9201 17.2265C31.0018 17.7314 31.3624 18.092 31.3624 18.5968C31.3624 19.3179 30.497 19.6785 29.6316 19.6785C28.1893 19.6785 27.396 19.3179 26.747 18.9573L26.2422 21.3371C26.8912 21.6256 28.1172 21.9141 29.4153 21.9141C32.372 21.9141 34.3191 20.4718 34.3191 18.1641C34.3191 15.4237 30.2807 15.2073 30.3528 13.9093Z" fill="#0072FF"/>
</svg>
