<svg width="56" height="56" viewBox="0 0 56 56" fill="none" xmlns="http://www.w3.org/2000/svg">
<g filter="url(#filter0_d_4060_163898)">
<path d="M33.3626 16.3487C35.8231 15.2595 37.0533 14.7149 37.5654 14.8838C38.0392 15.0401 38.3416 15.357 38.4755 15.8376C38.6203 16.3571 38.05 17.4979 36.9093 19.7795L30.0037 33.5929C29.359 34.8827 29.0366 35.5275 28.6003 35.7345C28.2206 35.9146 27.7801 35.9146 27.4004 35.7346C26.9641 35.5277 26.6416 34.8829 25.9967 33.5932L19.0894 19.7809C17.9483 17.4989 17.3777 16.3579 17.5224 15.8384C17.6562 15.3579 17.9586 15.0409 18.4324 14.8846C18.9445 14.7156 20.1751 15.2602 22.6362 16.3495C24.5784 17.2091 26.5412 17.8673 27.9984 17.8673C29.4562 17.8673 31.4198 17.2087 33.3626 16.3487ZM35.147 18.1323C32.9726 20.2203 30.3342 21.1237 27.3101 20.9127C24.8506 20.745 22.693 19.8525 20.949 18.1161C20.8819 18.0512 20.8092 17.9863 20.7366 17.9214C20.6653 17.8697 20.5554 17.9246 20.5169 18.0037C20.5016 18.0351 20.4906 18.0671 20.4906 18.0999C20.4906 18.1702 20.5577 18.2459 20.5912 18.3162L20.5923 18.3184C22.9564 23.0346 25.3205 27.7509 27.6791 32.4725C27.7238 32.559 27.7573 32.651 27.8076 32.7267C27.9586 32.9647 28.1095 32.9377 28.2436 32.7159C28.2995 32.6239 28.3442 32.5211 28.3946 32.4238C30.7479 27.7231 33.1012 23.0278 35.4489 18.3271C35.5214 18.1796 35.2849 18.0113 35.1611 18.1194C35.1563 18.1236 35.1516 18.1279 35.147 18.1323Z" fill="url(#paint0_linear_4060_163898)" shape-rendering="crispEdges"/>
<path d="M35.147 18.1323C32.9726 20.2203 30.3342 21.1237 27.3101 20.9127C24.8506 20.745 22.693 19.8525 20.949 18.1161C20.8819 18.0512 20.8092 17.9863 20.7366 17.9214C20.6653 17.8697 20.5554 17.9246 20.5169 18.0037C20.5016 18.0351 20.4906 18.0671 20.4906 18.0999C20.4906 18.1702 20.5577 18.2459 20.5912 18.3162L20.5923 18.3184C22.9564 23.0346 25.3205 27.7509 27.6791 32.4725C27.7238 32.559 27.7573 32.651 27.8076 32.7267C27.9586 32.9647 28.1095 32.9377 28.2436 32.7159C28.2995 32.6239 28.3442 32.5211 28.3946 32.4238C30.7479 27.7231 33.1012 23.0278 35.4489 18.3271C35.5214 18.1796 35.2849 18.0113 35.1611 18.1194C35.1563 18.1236 35.1516 18.1279 35.147 18.1323Z" fill="url(#paint1_linear_4060_163898)" shape-rendering="crispEdges"/>
</g>
<defs>
<filter id="filter0_d_4060_163898" x="0.700001" y="0.853516" width="54.6" height="54.6161" filterUnits="userSpaceOnUse" color-interpolation-filters="sRGB">
<feFlood flood-opacity="0" result="BackgroundImageFix"/>
<feColorMatrix in="SourceAlpha" type="matrix" values="0 0 0 0 0 0 0 0 0 0 0 0 0 0 0 0 0 0 127 0" result="hardAlpha"/>
<feOffset dy="2.8"/>
<feGaussianBlur stdDeviation="8.4"/>
<feComposite in2="hardAlpha" operator="out"/>
<feColorMatrix type="matrix" values="0 0 0 0 1 0 0 0 0 0.929412 0 0 0 0 0.686275 0 0 0 0.3 0"/>
<feBlend mode="normal" in2="BackgroundImageFix" result="effect1_dropShadow_4060_163898"/>
<feBlend mode="normal" in="SourceGraphic" in2="effect1_dropShadow_4060_163898" result="shape"/>
</filter>
<linearGradient id="paint0_linear_4060_163898" x1="27.9984" y1="37.6001" x2="27.9984" y2="12.4001" gradientUnits="userSpaceOnUse">
<stop stop-color="#FFFAEA"/>
<stop offset="0.291667" stop-color="#FFDB5A"/>
<stop offset="1" stop-color="#FF7F0A" stop-opacity="0.76"/>
</linearGradient>
<linearGradient id="paint1_linear_4060_163898" x1="27.9984" y1="37.6001" x2="27.9984" y2="12.4001" gradientUnits="userSpaceOnUse">
<stop stop-color="#FFFAEA"/>
<stop offset="0.291667" stop-color="#FFDB5A"/>
<stop offset="1" stop-color="#FF7F0A" stop-opacity="0.76"/>
</linearGradient>
</defs>
</svg>
