<svg width="20" height="20" viewBox="0 0 20 20" fill="none" xmlns="http://www.w3.org/2000/svg">
<rect width="20" height="20" rx="10" fill="#2A2D34"/>
<path d="M10.0025 14.096C9.70653 14.096 9.47853 14.012 9.31853 13.844C9.16653 13.668 9.09053 13.424 9.09053 13.112V9.008C9.09053 8.688 9.16653 8.444 9.31853 8.276C9.47853 8.1 9.70653 8.012 10.0025 8.012C10.2905 8.012 10.5105 8.1 10.6625 8.276C10.8225 8.444 10.9025 8.688 10.9025 9.008V13.112C10.9025 13.424 10.8265 13.668 10.6745 13.844C10.5225 14.012 10.2985 14.096 10.0025 14.096ZM10.0025 7.028C9.66653 7.028 9.40653 6.952 9.22253 6.8C9.04653 6.64 8.95853 6.416 8.95853 6.128C8.95853 5.832 9.04653 5.608 9.22253 5.456C9.40653 5.296 9.66653 5.216 10.0025 5.216C10.3385 5.216 10.5945 5.296 10.7705 5.456C10.9465 5.608 11.0345 5.832 11.0345 6.128C11.0345 6.416 10.9465 6.64 10.7705 6.8C10.5945 6.952 10.3385 7.028 10.0025 7.028Z" fill="#848588"/>
</svg>
