<svg width="194" height="24" viewBox="0 0 194 24" fill="none" xmlns="http://www.w3.org/2000/svg">
  <path
    d="M108.805 13.1962C105.858 13.1962 102.926 13.1962 100.007 13.1962C99.2597 13.1962 98.5265 13.1962 97.7933 13.2515C96.2716 13.3899 95.4554 14.2752 95.4692 15.7001C95.4692 17.1388 96.3269 18.1625 97.8348 18.204C101.127 18.2871 104.42 18.2594 107.726 18.2732C108.141 18.2732 108.556 18.2732 108.999 18.2732C108.999 19.4629 108.999 20.6388 108.999 21.8285C108.985 21.8285 108.971 21.8562 108.957 21.8562C105.042 21.8424 101.127 21.9392 97.2123 21.7593C92.9515 21.5657 90.5859 17.8305 92.1353 14.0401C92.5779 12.9472 93.242 12.297 94.6254 11.5638C91.9001 9.65472 91.0701 7.3998 92.1629 4.67453C93.1175 2.28127 95.1787 1.45124 97.5028 1.36823C101.307 1.24373 105.125 1.34057 108.971 1.34057C108.971 2.50261 108.971 3.67849 108.971 4.89587C108.847 4.89587 108.722 4.89587 108.584 4.89587C105.167 4.89587 101.75 4.88204 98.3328 4.9097C96.2993 4.93737 95.2064 6.30692 95.6491 8.20216C95.9119 9.32271 96.8941 9.91756 98.5957 9.91756C101.874 9.9314 105.167 9.91756 108.445 9.91756C108.57 9.91756 108.681 9.91756 108.819 9.91756C108.805 11.0243 108.805 12.1033 108.805 13.1962Z"
    fill="white" />
  <path
    d="M14.4997 21.8426C12.9503 19.2142 11.387 16.5719 9.82381 13.9158C8.02541 13.9158 6.21317 13.9158 4.41477 13.9158C4.01359 13.9158 3.94442 14.1925 3.94442 14.5245C3.94442 16.9455 3.94442 19.3802 3.94442 21.8288C2.74087 21.8288 1.55116 21.8288 0.389116 21.8288C0.389116 18.8269 0.306112 15.8249 0.430617 12.8368C0.499787 11.2182 1.56499 10.4989 3.37723 10.485C6.07483 10.4712 8.77244 10.485 11.47 10.485C13.3514 10.485 14.4582 9.41984 14.4443 7.62143C14.4443 5.90603 13.3514 4.91 11.47 4.91C7.76257 4.91 4.05509 4.91 0.319946 4.91C0.319946 3.72028 0.319946 2.53057 0.319946 1.31319C1.648 1.31319 2.97605 1.29936 4.29027 1.31319C7.11237 1.32702 9.93448 1.21635 12.7289 1.42386C15.7447 1.63137 17.7368 3.70645 18.0273 6.51472C18.3731 9.98702 16.8514 12.6016 13.891 13.5977C13.8495 13.6115 13.808 13.6392 13.7388 13.6668C15.3159 16.3921 16.8929 19.1035 18.4976 21.8426C17.1558 21.8426 15.8554 21.8426 14.4997 21.8426Z"
    fill="white" />
  <path
    d="M148.799 21.8563C147.609 21.8563 146.419 21.8563 145.216 21.8563C145.216 19.0065 145.216 16.1567 145.216 13.2931C141.702 13.2931 138.216 13.2931 134.702 13.2931C134.702 16.1291 134.702 18.9788 134.702 21.8424C133.485 21.8424 132.309 21.8424 131.105 21.8424C131.105 15.0085 131.105 8.17458 131.105 1.32682C132.281 1.32682 133.457 1.32682 134.674 1.32682C134.674 4.07976 134.674 6.86037 134.674 9.65481C138.202 9.65481 141.688 9.65481 145.216 9.65481C145.216 6.88804 145.216 4.10743 145.216 1.31299C146.433 1.31299 147.609 1.31299 148.813 1.31299C148.799 8.14692 148.799 14.9947 148.799 21.8563Z"
    fill="white" />
  <path
    d="M153.682 1.31299C154.9 1.31299 156.089 1.31299 157.32 1.31299C157.32 1.43749 157.32 1.54816 157.32 1.67267C157.32 6.07184 157.32 10.4572 157.32 14.8563C157.32 17.1943 158.386 18.2733 160.724 18.2871C161.996 18.301 163.269 18.301 164.542 18.2871C166.686 18.2595 167.779 17.1528 167.793 15.0085C167.807 10.5678 167.793 6.12717 167.793 1.6865C167.793 1.562 167.793 1.45133 167.793 1.32682C168.982 1.32682 170.144 1.32682 171.32 1.32682C171.32 2.32286 171.32 3.30506 171.32 4.28727C171.32 8.07775 171.348 11.8682 171.307 15.6449C171.279 19.3662 169.397 21.4689 165.69 21.8009C163.421 22.0085 161.125 22.0223 158.87 21.7733C155.619 21.4136 153.821 19.5045 153.724 15.9907C153.572 11.1074 153.682 6.23784 153.682 1.31299Z"
    fill="white" />
  <path
    d="M70.9557 1.31315C72.1592 1.31315 73.3213 1.31315 74.5248 1.31315C74.5248 4.20443 74.5248 7.09571 74.5248 10.0285C76.1987 9.95932 77.8449 10.1668 79.4773 9.79331C80.4734 9.57197 81.0544 8.86644 81.4971 8.00874C82.59 5.89216 83.669 3.77558 84.7619 1.64516C84.8172 1.53449 84.8864 1.40999 84.9417 1.29932C86.2283 1.29932 87.501 1.29932 88.8429 1.29932C87.2658 4.05226 86.1868 7.02654 84.4022 9.59964C83.835 10.4158 83.0188 10.9969 82.0228 11.4395C84.582 12.0897 85.4812 14.1925 86.5188 16.1846C87.4872 18.0521 88.4417 19.9197 89.4239 21.8288C88.0682 21.8288 86.754 21.8288 85.3982 21.8288C84.3745 19.8644 83.2817 17.9 82.341 15.8525C81.5109 14.068 80.1829 13.2794 78.2876 13.3071C77.0564 13.3209 75.839 13.3071 74.5663 13.3071C74.5663 16.1431 74.5663 18.979 74.5663 21.8288C73.3489 21.8288 72.1731 21.8288 70.9834 21.8288C70.9557 15.0087 70.9557 8.17475 70.9557 1.31315Z"
    fill="white" />
  <path
    d="M66.6533 1.28572C66.6533 2.51694 66.6533 3.69282 66.6533 4.89636C65.9616 4.89636 65.2838 4.89636 64.6059 4.89636C62.2818 4.9102 59.9577 4.82719 57.6475 4.97937C55.1435 5.14537 53.8155 6.41809 53.276 8.86668C52.8886 10.6513 52.8886 12.4635 53.2621 14.2619C53.8293 16.9733 55.4756 18.246 58.4498 18.2737C61.1751 18.3014 63.9142 18.2737 66.6671 18.2737C66.6671 19.4773 66.6671 20.6531 66.6671 21.8705C64.8964 21.8705 63.1395 21.8843 61.3688 21.8705C59.6395 21.8567 57.8965 22.0089 56.1811 21.6353C52.3768 20.833 50.0803 18.2184 49.5962 14.1236C49.3056 12.007 49.3057 9.87655 49.8175 7.78764C50.7305 4.0525 53.0961 1.83908 56.9143 1.4379C60.1376 1.07822 63.3885 1.38256 66.6533 1.28572Z"
    fill="white" />
  <path
    d="M121.726 21.8566C120.495 21.8566 119.319 21.8566 118.101 21.8566C118.101 16.2124 118.101 10.582 118.101 4.91012C116.096 4.91012 114.103 4.91012 112.098 4.91012C112.098 3.69274 112.098 2.51686 112.098 1.32715C117.285 1.32715 122.473 1.32715 127.688 1.32715C127.688 2.48919 127.688 3.66507 127.688 4.88245C125.71 4.88245 123.732 4.88245 121.726 4.88245C121.726 10.5543 121.726 16.1986 121.726 21.8566Z"
    fill="white" />
  <path
    d="M190.881 11.4811C192.126 10.9554 193.067 10.1392 193.496 8.8388C194.755 5.10366 192.528 1.71436 188.502 1.41002C184.85 1.13334 181.184 1.31318 177.518 1.32701C176.577 1.32701 176.121 1.9357 176.121 3.01475C176.121 5.17283 176.121 7.34475 176.121 9.50283C176.121 13.0305 176.121 16.5719 176.121 20.0996C176.121 21.2339 176.577 21.8426 177.573 21.8426C181.17 21.8426 184.767 21.8841 188.35 21.7596C191.061 21.6628 192.998 20.1826 193.621 18.0107C194.451 15.1885 193.579 13.1273 190.881 11.4811ZM179.676 5.17283C179.676 4.96532 179.8 4.84082 180.008 4.84082C182.623 4.85465 185.251 4.81315 187.866 4.92382C189.36 4.99299 190.19 6.07203 190.162 7.56609C190.134 8.97714 189.318 9.79334 187.783 9.93168C187.478 9.95935 187.188 9.97318 186.883 9.97318C184.49 9.97318 182.111 9.97318 179.676 9.97318C179.676 8.35462 179.676 6.76372 179.676 5.17283ZM187.658 18.2597C185.113 18.3288 182.567 18.2873 180.022 18.2873C179.8 18.2873 179.662 18.1905 179.662 17.9553C179.662 16.2953 179.662 14.649 179.662 12.9751C182.332 12.9751 184.961 12.9336 187.603 12.989C189.277 13.0166 190.217 13.9988 190.231 15.5621C190.259 17.1806 189.346 18.2182 187.658 18.2597Z"
    fill="white" />
  <path
    d="M45.778 12.1866C45.7365 11.1075 45.2385 10.3882 44.0765 10.2498C42.7346 4.27362 39.1239 0.828983 34.0054 0.662977C31.7643 0.593807 29.6616 1.05033 27.8355 2.39221C25.1517 4.34278 23.5332 6.92972 23.1043 10.2498C21.9838 10.3743 21.4442 11.0522 21.3889 12.1036C21.3474 12.8921 21.3336 13.6945 21.3474 14.483C21.3751 16.0601 21.8454 16.5858 23.4087 16.8624C23.3533 17.817 24.2802 18.4533 24.2664 19.394C24.2664 20.2517 24.6122 20.8604 25.3592 21.2478C30.8374 24.0422 36.3157 24.0422 41.8077 21.2478C42.3057 20.9849 42.8314 20.6114 42.8037 20.0581C42.7346 18.8268 43.7168 17.983 43.7998 16.8348C45.1417 16.7241 45.7088 16.1846 45.8057 14.8565C45.8472 13.985 45.8195 13.0858 45.778 12.1866ZM43.1219 16.0877C42.8591 18.5363 41.3373 19.9335 39.1793 20.7221C35.5133 22.064 31.8196 22.064 28.1398 20.7774C25.4976 19.8644 24.0035 18.0521 23.962 15.1747C23.9482 14.5245 23.8928 13.8743 23.8513 13.2241C23.8237 10.3052 24.1419 7.48307 26.0924 5.10365C28.5964 2.04636 32.6635 0.759814 36.3295 1.89419C40.1615 3.0839 42.8314 6.41786 43.1911 10.4574C43.3709 12.3388 43.3156 14.2063 43.1219 16.0877Z"
    fill="white" />
  <path
    d="M42.7345 13.2656C42.7207 14.6351 42.8314 16.0185 42.2918 17.3466C42.0152 18.0244 41.6417 18.6054 40.9638 18.9236C36.0528 21.3169 31.1417 21.3031 26.2307 18.9375C24.9995 18.3426 24.6122 17.1529 24.5292 15.9355C24.3217 13.0996 24.2248 10.2636 25.3454 7.55219C26.9363 3.72021 30.4777 1.57596 34.448 2.00481C38.612 2.46133 41.6555 5.38028 42.444 9.65494C42.6792 10.8585 42.7345 12.0482 42.7345 13.2656Z"
    fill="white" />
  <path
    d="M30.2426 3.51241C33.7564 1.64484 38.6259 3.2634 40.618 6.99854C42.2088 9.98666 42.0843 13.2099 41.697 16.4332C41.6417 16.8898 41.3235 17.3186 41.1298 17.7475C40.701 17.2494 40.2859 16.7514 39.9539 16.1842C39.9401 16.1289 39.9539 16.0874 39.9678 16.0321C40.4934 15.1605 40.4934 14.1783 40.5488 13.2099C40.6041 12.1171 40.4243 11.038 40.3136 9.94516C40.1891 8.85228 39.6496 8.04992 38.7504 7.45506C38.3215 7.16455 37.8927 6.87404 37.367 6.76337C36.3295 6.41752 35.2642 6.30685 34.1852 6.25151C33.7287 6.23768 33.2722 6.23768 32.8157 6.25151C32.6635 6.27918 32.5113 6.26535 32.373 6.23768C32.3038 6.21001 32.2208 6.18235 32.1793 6.11318C31.8196 5.65666 31.4323 5.21397 31.1418 4.70212C31.1279 4.60528 31.1971 4.54995 31.2524 4.48078C31.3631 4.34244 31.4184 4.2041 31.2939 4.0381C31.1833 3.88592 31.0449 3.89976 30.8927 3.95509C30.8097 3.98276 30.7267 4.02426 30.6437 3.99659C30.4362 3.91359 30.2979 3.74758 30.2426 3.51241Z"
    fill="#E55900" />
  <path
    d="M32.539 19.754C30.6991 19.6848 28.9284 19.339 27.2406 18.5781C25.9541 17.9971 25.3869 16.9734 25.3177 15.6592C25.1932 13.0307 25.0549 10.3746 26.1201 7.87071C26.2584 7.5387 26.4383 7.22052 26.6043 6.90234C26.9086 6.98535 26.9501 7.24819 27.047 7.4972C27.047 7.64937 26.9778 7.77388 26.9086 7.89838C26.3553 9.1296 26.0924 10.43 26.0233 11.7719C25.9818 12.6019 25.9679 13.4181 25.9679 14.2481C25.9679 15.0643 26.1201 15.8529 26.4383 16.5999C26.6043 16.9872 26.8395 17.3054 27.1853 17.5406C27.6418 17.8449 28.1398 18.0939 28.6517 18.3153C28.9422 18.4398 29.2327 18.4675 29.4817 18.2461C29.7861 18.1354 30.0213 18.3568 30.2979 18.3845C31.2386 18.5781 32.1932 18.6611 33.1615 18.7441C33.5627 18.9378 33.7149 19.3113 33.8256 19.7817C33.369 19.7678 32.954 19.8093 32.539 19.754Z"
    fill="#FF7917" />
  <path
    d="M32.5389 19.7537C32.9263 19.7537 33.3136 19.7537 33.784 19.7537C33.5488 19.394 33.4935 19.0205 33.1615 18.8268C33.2998 18.647 33.5073 18.7023 33.6872 18.7023C34.7385 18.7162 35.7761 18.5917 36.7998 18.3288C37.9895 18.0245 39.0132 17.4573 39.7325 16.4336C39.8017 16.3367 39.8709 16.2261 40.0092 16.2261C40.4104 16.7103 40.8531 17.1668 41.1298 17.7478C39.5942 19.0343 37.7128 19.4217 35.8037 19.6569C34.7247 19.809 33.6318 19.892 32.5389 19.7537Z"
    fill="#F66800" />
  <path
    d="M27.0056 7.42735C26.8672 7.24751 26.7427 7.06767 26.6044 6.88783C27.4482 5.36611 28.6241 4.20406 30.2288 3.49854C30.3672 3.66454 30.5055 3.81671 30.63 3.98272C30.6577 4.13489 30.5332 4.19023 30.4502 4.27323C30.3118 4.41157 30.2288 4.54991 30.3533 4.72975C30.4779 4.90959 30.6577 4.85425 30.8237 4.78508C30.9344 4.72975 31.0312 4.64675 31.1557 4.70208C31.5292 5.18627 31.9166 5.67045 32.2901 6.15464C32.1794 6.32064 32.0134 6.32064 31.8474 6.33448C31.2387 6.38981 30.6439 6.48665 30.049 6.65266C29.4265 6.76333 28.887 7.06767 28.3751 7.39968C28.2506 7.48269 28.1538 7.59336 27.9878 7.57952C27.8356 7.41352 27.9878 7.28901 28.0708 7.17834C28.4719 6.58349 28.97 6.0993 29.5372 5.65662C29.6478 5.57361 29.7723 5.47678 29.8415 5.35227C29.9107 5.22777 29.9245 5.10326 29.8277 4.97876C29.7447 4.86809 29.6202 4.86809 29.4956 4.89576C29.3711 4.93726 29.2605 5.02026 29.1636 5.10326C28.4166 5.69812 27.7802 6.36214 27.2822 7.17834C27.2269 7.28901 27.1854 7.44119 27.0056 7.42735Z"
    fill="#F66800" />
  <path
    d="M29.9798 6.5698C30.7268 6.30696 31.5292 6.27929 32.3039 6.15479C32.456 6.15479 32.622 6.16862 32.7742 6.16862C33.2584 6.21012 33.7426 6.21012 34.2268 6.16862C35.3197 6.18245 36.3849 6.29312 37.4224 6.68047C38.3908 7.26149 38.9718 8.17453 39.4698 9.12907C39.6497 9.46108 39.788 9.80692 39.8987 10.1666C40.0093 10.5263 39.9678 10.6646 39.622 10.7891C38.7643 11.1211 37.9204 11.467 37.0627 11.799C36.9382 11.8543 36.8137 11.882 36.6754 11.8267C36.039 11.3425 35.8177 10.72 36.0113 9.9176C36.3434 9.75159 36.703 9.82076 37.0627 9.84843C37.3947 9.90376 37.7267 10.0006 38.0449 9.80693C38.1418 9.50258 38.1279 9.21207 38.0449 8.90772C37.9758 8.83855 37.8927 8.83855 37.7959 8.83855C37.3256 8.83855 36.8552 8.83855 36.371 8.83855C36.2604 8.83855 36.1497 8.83855 36.0667 8.93539C35.9422 9.37808 35.956 9.83459 35.9698 10.2773C35.9837 10.7891 35.873 11.2041 35.5272 11.6053C35.209 11.965 34.9323 12.3662 34.628 12.7397C34.5865 12.795 34.5173 12.8365 34.462 12.8642C33.3829 13.2377 32.3315 13.7081 31.2663 14.1093C31.1003 14.1784 30.9482 14.2614 30.7683 14.2476C30.5193 14.2061 30.5055 13.9017 30.2841 13.7911C30.0213 14.0539 29.8968 14.3998 29.6893 14.6903C29.6339 14.7456 29.5786 14.7733 29.5233 14.801C29.0667 15.0223 28.5826 15.1883 28.1122 15.3681C27.7802 15.4926 27.628 15.4235 27.5589 15.0776C27.3513 13.8879 27.2407 12.6982 27.3375 11.4947C27.4205 10.6231 27.5589 9.76542 27.9047 8.96306C28.3336 7.93935 28.9699 7.09549 29.9798 6.5698Z"
    fill="#FFE4C3" />
  <path
    d="M40.0093 16.2399C38.8749 18.0522 37.0627 18.5502 35.1121 18.7439C34.4619 18.813 33.8117 18.7992 33.1615 18.8269C32.1793 18.813 31.2109 18.6747 30.2426 18.481C30.0212 18.3288 30.2011 18.1767 30.2841 18.066C30.8513 17.3466 31.3769 16.5996 31.9718 15.9079C32.0133 15.8664 32.0548 15.8387 32.0963 15.8249C33.9639 15.0502 35.8453 14.3309 37.7129 13.5838C37.8097 13.5423 37.9204 13.5008 38.031 13.5285C38.1832 13.57 38.2662 13.6945 38.3492 13.8052C38.8887 14.483 39.3868 15.1747 39.9263 15.8526C39.9816 15.9356 40.0508 16.0048 40.0093 16.1154C40.0093 16.1569 40.0093 16.1984 40.0093 16.2399Z"
    fill="#CB0100" />
  <path
    d="M40.0093 16.1152C39.9678 16.046 39.9263 15.9769 39.871 15.9077C39.7742 15.714 39.7465 15.5203 39.7603 15.299C39.7742 14.6626 39.6497 14.0401 39.5667 13.4038C39.5528 13.3208 39.539 13.2239 39.4422 13.1548C38.9995 13.2101 38.6121 13.5144 38.1556 13.5836C38.0449 13.5559 37.9343 13.5421 37.8651 13.4453C37.4916 12.9334 37.0351 12.4769 36.7307 11.9097C36.7307 11.882 36.7307 11.8405 36.7445 11.8129C37.7959 11.4117 38.8335 11.0105 39.8987 10.5955C39.4975 8.99076 38.6121 7.74571 37.4224 6.69434C38.8888 7.01251 40.1892 8.3959 40.4105 9.84846C40.6734 11.5915 40.8117 13.3346 40.4797 15.0777C40.3967 15.4512 40.2998 15.8247 40.0093 16.1152Z"
    fill="#FFC27D" />
  <path
    d="M31.1695 4.7026C30.879 4.82711 30.5608 5.22829 30.2564 4.7856C29.9659 4.37059 30.4086 4.20458 30.6438 3.98324C30.9066 3.8449 31.1833 3.65123 31.4185 3.99707C31.6398 4.31525 31.3908 4.52276 31.1695 4.7026Z"
    fill="white" />
  <path
    d="M34.2267 6.16895C33.7425 6.26578 33.2584 6.26578 32.7742 6.16895C33.2584 6.16895 33.7425 6.16895 34.2267 6.16895Z"
    fill="#FCE9C9" />
  <path
    d="M27.0055 7.42785C27.5865 6.44565 28.3336 5.60178 29.2604 4.91009C29.4956 4.74408 29.7308 4.66108 29.9245 4.91009C30.1458 5.17293 30.0213 5.39427 29.7861 5.58795C29.0668 6.15513 28.4027 6.74999 27.9601 7.56619C28.0016 7.70453 27.9186 7.8152 27.8632 7.9397C27.2684 9.06025 26.9917 10.2638 26.8948 11.5227C26.8257 12.5049 26.8672 13.4871 26.8395 14.4693C26.8257 14.8843 26.9087 15.2855 27.0055 15.6728C27.1577 16.2815 27.462 16.7657 28.0292 17.0701C28.1814 17.1669 28.3336 17.2361 28.4857 17.3052C28.7209 17.4436 28.9976 17.5127 29.2328 17.6372C29.551 17.8032 29.634 17.9969 29.4956 18.2874C29.3434 18.5641 29.1221 18.6056 28.8178 18.5088C26.964 17.9416 25.9126 16.738 25.8711 14.7598C25.8435 12.2559 25.7881 9.73811 27.0055 7.42785Z"
    fill="white" />
  <path
    d="M29.5094 18.2875C29.5509 17.5128 28.7485 17.7203 28.4165 17.3745C28.4442 17.2638 28.5272 17.2085 28.624 17.167C29.6754 16.7519 30.6991 16.2954 31.7781 15.9357C31.8611 15.9219 31.9441 15.8942 32.0271 15.9634C31.4738 16.6828 30.9204 17.416 30.3671 18.1353C30.2979 18.2322 30.1457 18.3152 30.2564 18.4812C30.0074 18.412 29.7584 18.3428 29.5094 18.2875Z"
    fill="#E95700" />
  <path
    d="M28.043 17.1669C27.3098 16.8764 26.9501 16.2677 26.8671 15.5622C26.5766 13.0582 26.5213 10.5543 27.5865 8.18871C27.6833 7.96737 27.8355 7.7737 27.9461 7.56619C28.5687 7.15117 29.1912 6.72232 29.9659 6.58398C26.8948 8.90807 27.2268 12.1037 27.6556 15.41C28.3335 15.161 28.9283 14.9535 29.5094 14.7321C29.5924 14.8566 29.5094 14.9673 29.454 15.0641C29.0667 15.7143 28.6655 16.3507 28.2782 17.0009C28.2367 17.0839 28.1952 17.2084 28.043 17.1669Z"
    fill="#FFC27D" />
  <path
    d="M36.7445 11.8684C37.1872 12.4217 37.6298 12.9751 38.0725 13.5423C38.1002 13.5561 38.1002 13.5699 38.0864 13.5838C38.0725 13.5976 38.0725 13.5976 38.0587 13.5976C36.1358 14.3446 34.2129 15.1055 32.29 15.8525C32.2346 15.8802 32.1655 15.894 32.0963 15.9079C32.041 15.7695 32.1378 15.6727 32.207 15.5759C32.8433 14.7182 33.4935 13.8743 34.1575 13.0304C34.2267 12.9336 34.3235 12.8506 34.4204 12.7952C34.4619 12.7676 34.4895 12.7537 34.5311 12.7261C34.7939 12.4632 35.1259 12.3802 35.4579 12.2557C35.7484 12.1312 36.0389 12.0206 36.3433 11.9099C36.4678 11.8407 36.6061 11.7577 36.7445 11.8684Z"
    fill="#D40100" />
  <path
    d="M28.043 17.167C28.541 16.3508 29.0252 15.5346 29.5233 14.7184C29.5648 14.6907 29.5924 14.6631 29.6339 14.6354C29.9383 14.3864 30.2841 14.2065 30.6853 14.2065C30.796 14.2065 30.8651 14.2757 30.9205 14.3725C31.211 14.8567 31.5153 15.3271 31.8058 15.8113C31.8473 15.8804 31.875 15.9496 31.8335 16.0326C30.6991 16.4753 29.5648 16.9318 28.4304 17.3745C28.3059 17.3053 28.1814 17.2362 28.043 17.167Z"
    fill="#F38500" />
  <path
    d="M31.8334 16.032C31.4599 15.4372 31.0726 14.8423 30.6991 14.2475C30.6852 14.2336 30.6714 14.2198 30.6852 14.206C30.6852 14.1921 30.6991 14.1921 30.6991 14.1921C31.7919 13.7633 32.8848 13.3483 33.9777 12.9194C34.116 12.8641 34.2682 12.8364 34.4204 12.7949C33.6457 13.8325 32.871 14.87 32.0963 15.9075C32.0686 15.9214 32.041 15.949 32.0271 15.9629C31.958 15.9905 31.9026 16.0044 31.8334 16.032Z"
    fill="#FFC27D" />
  <path
    d="M36.7445 11.8686C36.0114 12.1591 35.2782 12.4358 34.5311 12.7263C34.545 12.6986 34.5588 12.6571 34.5726 12.6433C35.6517 11.6058 36.1082 10.3469 35.8868 8.85282C35.8868 8.83899 35.9007 8.82515 35.9007 8.82515C36.6339 8.76982 37.3809 8.75598 38.1141 8.82515C38.1418 9.18483 38.1694 9.55835 38.1833 9.91803C37.8098 10.0287 37.4362 9.97336 37.0627 9.9457C36.7307 9.9457 36.3987 9.9457 36.0805 9.9457C35.8038 10.7342 36.2327 11.2876 36.7169 11.7994C36.7445 11.8271 36.7445 11.8409 36.7445 11.8686Z"
    fill="#EC0300" />
  <path
    d="M30.6991 14.1928C30.6991 14.2067 30.6991 14.2343 30.6991 14.2482C30.3394 14.3727 29.9798 14.511 29.6339 14.6355C29.8414 14.2897 30.0351 13.93 30.2703 13.5288C30.4363 13.7778 30.5746 13.9853 30.6991 14.1928Z"
    fill="#FAC903" />
  <path
    d="M38.1279 8.82512C37.3809 8.82512 36.6339 8.83896 35.8868 8.83896C36.6339 8.67295 37.3809 8.71445 38.1279 8.82512Z"
    fill="#FFEFCC" />
  <path
    d="M37.0904 9.94564C37.4639 9.9318 37.8374 9.91797 38.2109 9.91797C37.8374 10.084 37.4639 10.0286 37.0904 9.94564Z"
    fill="#FBE8C5" />
  <path
    d="M38.0588 13.5838C38.0588 13.57 38.0588 13.5561 38.0588 13.5285C38.5568 13.3348 39.041 13.1411 39.5805 12.9336C39.8018 13.9296 39.9125 14.9118 39.871 15.894C39.2762 15.1332 38.6675 14.3585 38.0588 13.5838Z"
    fill="#F47F37" />
</svg>