<svg width="30" height="28" viewBox="0 0 30 28" fill="none" xmlns="http://www.w3.org/2000/svg">
  <path
    d="M29.2389 14.2187C29.1905 12.9598 28.6095 12.1205 27.2537 11.9591C25.6882 4.98686 21.4758 0.968124 15.5042 0.77445C12.8896 0.693752 10.4364 1.22636 8.30595 2.79189C5.17489 5.06756 3.28657 8.08565 2.78624 11.9591C1.47894 12.1044 0.849498 12.8952 0.78494 14.1218C0.736521 15.0418 0.720381 15.9779 0.736521 16.8978C0.7688 18.7377 1.31754 19.351 3.14131 19.6738C3.07675 20.7874 4.1581 21.5299 4.14196 22.6273C4.14196 23.628 4.54545 24.3381 5.41698 24.79C11.8082 28.0502 18.1995 28.0502 24.6069 24.79C25.1879 24.4834 25.8012 24.0476 25.7689 23.402C25.6882 21.9656 26.8341 20.9811 26.9309 19.6415C28.4965 19.5124 29.1582 18.883 29.2712 17.3336C29.3196 16.3168 29.2873 15.2677 29.2389 14.2187ZM26.1401 18.77C25.8335 21.6267 24.0581 23.2568 21.5403 24.1767C17.2634 25.7423 12.9541 25.7423 8.66102 24.2413C5.57837 23.1761 3.83531 21.0618 3.78689 17.7048C3.77075 16.9462 3.70619 16.1877 3.65777 15.4291C3.62549 12.0237 3.9967 8.73123 6.27237 5.95523C9.19362 2.3884 13.9386 0.887426 18.2156 2.21087C22.6863 3.59886 25.8012 7.48849 26.2208 12.2012C26.4306 14.3962 26.3661 16.575 26.1401 18.77Z"
    fill="white" />
  <path
    d="M25.6957 15.4771C25.6796 17.0749 25.8087 18.6888 25.1793 20.2382C24.8565 21.0291 24.4207 21.7069 23.6299 22.0781C17.9003 24.8703 12.1708 24.8541 6.44129 22.0943C5.00487 21.4003 4.55297 20.0123 4.45613 18.592C4.21404 15.2834 4.10106 11.9748 5.40836 8.81146C7.26441 4.34082 11.3961 1.83919 16.0282 2.33952C20.8862 2.87212 24.4368 6.27756 25.3568 11.2647C25.6312 12.6688 25.6957 14.0568 25.6957 15.4771Z"
    fill="white" />
  <path
    d="M11.1133 4.0983C15.2127 1.91947 20.8938 3.80779 23.2179 8.16545C25.074 11.6516 24.9287 15.4121 24.4768 19.1726C24.4122 19.7052 24.041 20.2055 23.8151 20.7059C23.3147 20.1248 22.8306 19.5438 22.4432 18.8821C22.4271 18.8175 22.4432 18.7691 22.4594 18.7046C23.0727 17.6878 23.0727 16.5419 23.1372 15.4121C23.2018 14.1371 22.992 12.8782 22.8628 11.6032C22.7176 10.3281 22.0882 9.39206 21.0391 8.69806C20.5388 8.35913 20.0384 8.0202 19.4251 7.89108C18.2147 7.4876 16.9719 7.35848 15.713 7.29392C15.1804 7.27778 14.6478 7.27778 14.1152 7.29392C13.9377 7.3262 13.7602 7.31006 13.5988 7.27778C13.5181 7.2455 13.4212 7.21322 13.3728 7.13253C12.9532 6.59992 12.5013 6.08346 12.1623 5.4863C12.1462 5.37332 12.2269 5.30876 12.2915 5.22806C12.4206 5.06667 12.4851 4.90527 12.3399 4.7116C12.2108 4.53407 12.0494 4.5502 11.8718 4.61476C11.775 4.64704 11.6782 4.69546 11.5813 4.66318C11.3392 4.56634 11.1778 4.37267 11.1133 4.0983Z"
    fill="#E55900" />
  <path
    d="M13.7846 23.0473C11.638 22.9666 9.57217 22.5631 7.60315 21.6755C6.10217 20.9976 5.44045 19.8033 5.35976 18.27C5.2145 15.2035 5.0531 12.1047 6.29585 9.18348C6.45724 8.79613 6.66706 8.42492 6.86073 8.05371C7.2158 8.15055 7.26422 8.4572 7.3772 8.74771C7.3772 8.92524 7.2965 9.0705 7.2158 9.21576C6.57022 10.6522 6.26357 12.1693 6.18287 13.7348C6.13445 14.7032 6.11831 15.6554 6.11831 16.6238C6.11831 17.576 6.29585 18.496 6.66706 19.3675C6.86073 19.8194 7.1351 20.1906 7.53859 20.465C8.07119 20.8201 8.65222 21.1106 9.24938 21.3688C9.58831 21.5141 9.92724 21.5463 10.2177 21.2881C10.5728 21.159 10.8472 21.4172 11.17 21.4495C12.2675 21.6755 13.3811 21.7723 14.5109 21.8691C14.9789 22.0951 15.1564 22.5308 15.2856 23.0796C14.753 23.0635 14.2688 23.1119 13.7846 23.0473Z"
    fill="#FF7917" />
  <path
    d="M13.7852 23.0472C14.2371 23.0472 14.689 23.0472 15.2377 23.0472C14.9633 22.6276 14.8988 22.1918 14.5114 21.9659C14.6728 21.7561 14.9149 21.8206 15.1247 21.8206C16.3513 21.8368 17.5618 21.6915 18.7561 21.3848C20.1441 21.0298 21.3384 20.3681 22.1777 19.1737C22.2584 19.0608 22.3391 18.9316 22.5005 18.9316C22.9685 19.4965 23.485 20.0291 23.8078 20.707C22.0163 22.208 19.8213 22.6599 17.5941 22.9342C16.3352 23.1118 15.0602 23.2086 13.7852 23.0472Z"
    fill="#F66800" />
  <path
    d="M7.33523 8.66663C7.17384 8.45681 7.02858 8.247 6.86719 8.03719C7.8517 6.26184 9.22356 4.90612 11.0957 4.08301C11.2571 4.27668 11.4185 4.45422 11.5638 4.64789C11.5961 4.82543 11.4508 4.88998 11.354 4.98682C11.1926 5.14822 11.0957 5.30961 11.241 5.51942C11.3863 5.72924 11.5961 5.66468 11.7897 5.58398C11.9189 5.51942 12.0318 5.42259 12.1771 5.48714C12.6129 6.05203 13.0648 6.61691 13.5005 7.18179C13.3714 7.37547 13.1777 7.37547 12.9841 7.39161C12.2739 7.45616 11.5799 7.56914 10.8859 7.76281C10.1596 7.89193 9.53021 8.247 8.93305 8.63435C8.78779 8.73118 8.67481 8.8603 8.48114 8.84416C8.3036 8.65049 8.48114 8.50523 8.57798 8.37612C9.04602 7.68212 9.62705 7.11723 10.2888 6.60077C10.4179 6.50393 10.5631 6.39096 10.6438 6.2457C10.7245 6.10045 10.7407 5.95519 10.6277 5.80993C10.5309 5.68082 10.3856 5.68082 10.2403 5.7131C10.0951 5.76152 9.96597 5.85835 9.853 5.95519C8.98146 6.64919 8.23905 7.42388 7.65802 8.37612C7.59347 8.50523 7.54505 8.68277 7.33523 8.66663Z"
    fill="#F66800" />
  <path
    d="M10.8154 7.66583C11.6869 7.35918 12.623 7.3269 13.5268 7.18164C13.7044 7.18164 13.8981 7.19778 14.0756 7.19778C14.6405 7.2462 15.2054 7.2462 15.7702 7.19778C17.0453 7.21392 18.288 7.34304 19.4985 7.79494C20.6282 8.4728 21.3061 9.53801 21.8871 10.6516C22.0969 11.039 22.2583 11.4425 22.3874 11.8621C22.5166 12.2817 22.4681 12.4431 22.0646 12.5884C21.064 12.9757 20.0795 13.3792 19.0788 13.7666C18.9336 13.8311 18.7883 13.8634 18.6269 13.7988C17.8845 13.234 17.6263 12.5077 17.8522 11.5716C18.2396 11.3779 18.6592 11.4586 19.0788 11.4909C19.4662 11.5554 19.8535 11.6684 20.2247 11.4425C20.3377 11.0874 20.3216 10.7485 20.2247 10.3934C20.144 10.3127 20.0472 10.3127 19.9342 10.3127C19.3855 10.3127 18.8367 10.3127 18.2719 10.3127C18.1427 10.3127 18.0136 10.3127 17.9168 10.4257C17.7715 10.9421 17.7877 11.4748 17.8038 11.9912C17.82 12.5884 17.6908 13.0726 17.2874 13.5406C16.9161 13.9602 16.5934 14.4283 16.2383 14.864C16.1899 14.9286 16.1092 14.977 16.0446 15.0093C14.7857 15.4451 13.5591 15.9938 12.3164 16.4619C12.1227 16.5426 11.9452 16.6394 11.7354 16.6233C11.4449 16.5748 11.4287 16.2198 11.1705 16.0906C10.8638 16.3973 10.7186 16.8008 10.4765 17.1397C10.4119 17.2043 10.3474 17.2366 10.2828 17.2688C9.7502 17.5271 9.18532 17.7207 8.63658 17.9306C8.24923 18.0758 8.07169 17.9951 7.991 17.5916C7.7489 16.2036 7.61979 14.8156 7.73276 13.4115C7.8296 12.3947 7.991 11.3941 8.39448 10.458C8.89481 9.26364 9.63723 8.27913 10.8154 7.66583Z"
    fill="#FFE4C3" />
  <path
    d="M22.5107 18.9482C21.1873 21.0625 19.073 21.6435 16.7974 21.8695C16.0388 21.9502 15.2802 21.934 14.5217 21.9663C13.3758 21.9502 12.246 21.7888 11.1162 21.5628C10.858 21.3853 11.0678 21.2077 11.1647 21.0786C11.8264 20.2394 12.4397 19.3678 13.1337 18.5609C13.1821 18.5124 13.2305 18.4802 13.2789 18.464C15.4578 17.5602 17.6527 16.721 19.8316 15.8494C19.9446 15.801 20.0737 15.7526 20.2028 15.7849C20.3803 15.8333 20.4772 15.9785 20.574 16.1077C21.2034 16.8985 21.7845 17.7055 22.4139 18.4963C22.4785 18.5931 22.5592 18.6738 22.5107 18.803C22.5107 18.8514 22.5107 18.8998 22.5107 18.9482Z"
    fill="#CB0100" />
  <path
    d="M22.5047 18.8016C22.4563 18.7209 22.4079 18.6402 22.3434 18.5595C22.2304 18.3335 22.1981 18.1076 22.2142 17.8493C22.2304 17.1069 22.0851 16.3806 21.9883 15.6382C21.9721 15.5414 21.956 15.4284 21.843 15.3477C21.3266 15.4123 20.8747 15.7673 20.3421 15.848C20.2129 15.8157 20.0838 15.7996 20.0031 15.6866C19.5674 15.0895 19.0348 14.5569 18.6797 13.8951C18.6797 13.8629 18.6797 13.8144 18.6958 13.7822C19.9224 13.3141 21.1329 12.8461 22.3756 12.3619C21.9076 10.4897 20.8747 9.03715 19.4867 7.81055C21.1975 8.18176 22.7146 9.79571 22.9728 11.4904C23.2794 13.5239 23.4408 15.5575 23.0535 17.5911C22.9567 18.0269 22.8437 18.4626 22.5047 18.8016Z"
    fill="#FFC27D" />
  <path
    d="M12.1962 5.48734C11.8573 5.6326 11.4861 6.10065 11.131 5.58418C10.7921 5.1 11.3085 4.90632 11.5829 4.64809C11.8896 4.48669 12.2124 4.26074 12.4867 4.66423C12.745 5.03544 12.4544 5.27753 12.1962 5.48734Z"
    fill="white" />
  <path
    d="M15.765 7.19824C15.2001 7.31122 14.6352 7.31122 14.0703 7.19824C14.6352 7.19824 15.2001 7.19824 15.765 7.19824Z"
    fill="#FCE9C9" />
  <path
    d="M7.33525 8.66664C8.01311 7.52073 8.88464 6.53622 9.96599 5.72925C10.2404 5.53557 10.5147 5.43874 10.7407 5.72925C10.9989 6.0359 10.8537 6.29413 10.5793 6.52008C9.74003 7.1818 8.96534 7.8758 8.44887 8.82803C8.49729 8.98943 8.40045 9.11855 8.3359 9.2638C7.6419 10.5711 7.31911 11.9752 7.20613 13.4439C7.12543 14.5898 7.17385 15.7357 7.14157 16.8816C7.12543 17.3658 7.22227 17.8339 7.33525 18.2858C7.51278 18.9959 7.86785 19.5608 8.52957 19.9159C8.7071 20.0289 8.88464 20.1096 9.06217 20.1902C9.33655 20.3516 9.65933 20.4323 9.93371 20.5776C10.3049 20.7713 10.4018 20.9972 10.2404 21.3362C10.0628 21.6589 9.80459 21.7074 9.44952 21.5944C7.28683 20.9327 6.06023 19.5285 6.01181 17.2206C5.97953 14.2993 5.91497 11.3619 7.33525 8.66664Z"
    fill="white" />
  <path
    d="M10.2516 21.3362C10.3 20.4323 9.36391 20.6744 8.97656 20.2709C9.00884 20.1418 9.10568 20.0773 9.21866 20.0289C10.4453 19.5447 11.6396 19.0121 12.8985 18.5924C12.9953 18.5763 13.0921 18.544 13.189 18.6247C12.5434 19.464 11.8978 20.3194 11.2522 21.1586C11.1715 21.2716 10.994 21.3684 11.1231 21.5621C10.8326 21.4814 10.5421 21.4007 10.2516 21.3362Z"
    fill="#E95700" />
  <path
    d="M8.54794 20.0293C7.69255 19.6904 7.27292 18.9803 7.17609 18.1572C6.83716 15.2359 6.7726 12.3147 8.01534 9.5548C8.12832 9.29657 8.30585 9.07062 8.43497 8.82852C9.16125 8.34434 9.88752 7.84401 10.7913 7.68262C7.20836 10.3941 7.59571 14.1223 8.09604 17.9796C8.88687 17.6891 9.58087 17.447 10.2587 17.1888C10.3556 17.334 10.2587 17.4632 10.1942 17.5761C9.74227 18.3347 9.27422 19.0771 8.82231 19.8357C8.7739 19.9325 8.72548 20.0778 8.54794 20.0293Z"
    fill="#FFC27D" />
  <path
    d="M18.7037 13.8471C19.2202 14.4927 19.7366 15.1383 20.2531 15.8C20.2854 15.8161 20.2854 15.8323 20.2693 15.8484C20.2531 15.8645 20.2531 15.8645 20.237 15.8645C17.9936 16.7361 15.7502 17.6237 13.5068 18.4953C13.4422 18.5276 13.3615 18.5437 13.2808 18.5598C13.2163 18.3984 13.3293 18.2855 13.41 18.1725C14.1524 17.1718 14.9109 16.1873 15.6856 15.2028C15.7663 15.0898 15.8793 14.993 15.9923 14.9284C16.0407 14.8962 16.073 14.88 16.1214 14.8477C16.4281 14.5411 16.8154 14.4443 17.2027 14.299C17.5417 14.1537 17.8806 14.0246 18.2357 13.8955C18.3809 13.8148 18.5423 13.718 18.7037 13.8471Z"
    fill="#D40100" />
  <path
    d="M8.53906 20.0291C9.12008 19.0768 9.68497 18.1246 10.266 17.1724C10.3144 17.1401 10.3467 17.1078 10.3951 17.0755C10.7502 16.785 11.1537 16.5752 11.6217 16.5752C11.7508 16.5752 11.8315 16.6559 11.8961 16.7689C12.235 17.3338 12.5901 17.8825 12.929 18.4474C12.9774 18.5281 13.0097 18.6088 12.9613 18.7056C11.6378 19.2221 10.3144 19.7547 8.99097 20.2711C8.84571 20.1904 8.70046 20.1097 8.53906 20.0291Z"
    fill="#F38500" />
  <path
    d="M12.9752 18.7054C12.5394 18.0114 12.0875 17.3174 11.6517 16.6234C11.6356 16.6072 11.6195 16.5911 11.6356 16.5749C11.6356 16.5588 11.6517 16.5588 11.6517 16.5588C12.9268 16.0585 14.2018 15.5743 15.4768 15.074C15.6382 15.0094 15.8157 14.9771 15.9933 14.9287C15.0894 16.1392 14.1856 17.3496 13.2818 18.5601C13.2495 18.5762 13.2173 18.6085 13.2011 18.6247C13.1204 18.6569 13.0559 18.6731 12.9752 18.7054Z"
    fill="#FFC27D" />
  <path
    d="M18.7034 13.8475C17.848 14.1864 16.9926 14.5092 16.1211 14.8482C16.1372 14.8159 16.1534 14.7675 16.1695 14.7513C17.4284 13.5409 17.961 12.0722 17.7028 10.3291C17.7028 10.313 17.7189 10.2968 17.7189 10.2968C18.5743 10.2323 19.4458 10.2161 20.3012 10.2968C20.3335 10.7165 20.3658 11.1522 20.3819 11.5718C19.9462 11.701 19.5104 11.6364 19.0746 11.6041C18.6873 11.6041 18.2999 11.6041 17.9287 11.6041C17.6059 12.5241 18.1063 13.1697 18.6711 13.7668C18.7034 13.7991 18.7034 13.8152 18.7034 13.8475Z"
    fill="#EC0300" />
  <path
    d="M12.067 17.1097C12.067 17.1258 12.067 17.1581 12.067 17.1742C11.6473 17.3195 11.2277 17.4809 10.8242 17.6261C11.0663 17.2226 11.2923 16.803 11.5666 16.335C11.7603 16.6255 11.9217 16.8676 12.067 17.1097Z"
    fill="#FAC903" />
  <path
    d="M20.3099 10.2969C19.4384 10.2969 18.5668 10.313 17.6953 10.313C18.5668 10.1193 19.4384 10.1678 20.3099 10.2969Z"
    fill="#FFEFCC" />
  <path
    d="M19.1055 11.6045C19.5412 11.5884 19.977 11.5723 20.4128 11.5723C19.977 11.7659 19.5412 11.7014 19.1055 11.6045Z"
    fill="#FBE8C5" />
  <path
    d="M20.2266 15.8494C20.2266 15.8332 20.2266 15.8171 20.2266 15.7848C20.8076 15.5589 21.3725 15.3329 22.0019 15.0908C22.2601 16.2529 22.3893 17.3988 22.3408 18.5447C21.6468 17.657 20.9367 16.7532 20.2266 15.8494Z"
    fill="#F47F37" />
</svg>