<svg xmlns="http://www.w3.org/2000/svg" width="148" height="137" viewBox="0 0 148 137" fill="none">
  <g style="mix-blend-mode:color-dodge">
    <path d="M146.851 69.2936C146.602 62.8089 143.609 58.4858 136.625 57.6544C128.561 21.7392 106.862 1.03807 76.1016 0.0404259C62.6334 -0.375259 49.9965 2.36826 39.0225 10.4326C22.8939 22.1549 13.1668 37.7015 10.5896 57.6544C3.85549 58.4026 0.613138 62.4763 0.28059 68.7947C0.0311785 73.5336 -0.051961 78.3555 0.031176 83.0943C0.19745 92.5719 3.02412 95.7311 12.4186 97.3939C12.0861 103.13 17.6562 106.955 17.5731 112.608C17.5731 117.762 19.6515 121.421 24.1409 123.748C57.0632 140.542 89.9855 140.542 122.991 123.748C125.984 122.169 129.143 119.924 128.977 116.599C128.561 109.199 134.464 104.128 134.963 97.2276C143.027 96.5625 146.436 93.3202 147.017 85.339C147.267 80.1014 147.101 74.6975 146.851 69.2936ZM130.889 92.7382C129.309 107.453 120.164 115.85 107.195 120.589C85.1635 128.653 62.9659 128.653 40.8515 120.922C24.9723 115.435 15.9935 104.544 15.7441 87.2512C15.6609 83.3437 15.3284 79.4363 15.079 75.5289C14.9127 57.9869 16.8249 41.027 28.5472 26.7274C43.595 8.35413 68.0373 0.622385 90.0686 7.43962C113.098 14.5894 129.143 34.6254 131.305 58.9014C132.385 70.2081 132.053 81.4316 130.889 92.7382Z" fill="white"/>
    <path d="M128.548 75.7901C128.465 84.0207 129.13 92.3344 125.887 100.316C124.225 104.389 121.98 107.881 117.906 109.793C88.3926 124.176 58.879 124.093 29.3653 109.876C21.9661 106.301 19.6383 99.1516 19.1395 91.8356C17.8924 74.7925 17.3105 57.7494 24.0446 41.4545C33.6053 18.4256 54.8884 5.53931 78.7487 8.11656C103.773 10.8601 122.063 28.402 126.802 54.0913C128.215 61.3243 128.548 68.4741 128.548 75.7901Z" fill="white"/>
    <path d="M53.4766 17.1696C74.5934 5.94614 103.858 15.6732 115.829 38.1202C125.39 56.0778 124.642 75.4487 122.314 94.8196C121.981 97.5631 120.069 100.14 118.905 102.718C116.328 99.7247 113.834 96.7318 111.839 93.3232C111.756 92.9906 111.839 92.7412 111.922 92.4087C115.081 87.171 115.081 81.2683 115.414 75.4487C115.746 68.8809 114.665 62.3962 114 55.8284C113.252 49.2605 110.01 44.4386 104.606 40.8637C102.029 39.1178 99.4514 37.3719 96.2921 36.7068C90.0569 34.6284 83.6553 33.9633 77.1706 33.6308C74.4271 33.5476 71.6836 33.5476 68.9401 33.6308C68.0255 33.797 67.111 33.7139 66.2797 33.5476C65.864 33.3814 65.3652 33.2151 65.1157 32.7994C62.9542 30.0559 60.6263 27.3955 58.8805 24.3194C58.7973 23.7375 59.213 23.4049 59.5456 22.9892C60.2107 22.1579 60.5432 21.3265 59.795 20.3288C59.1299 19.4143 58.2985 19.4975 57.384 19.83C56.8852 19.9963 56.3864 20.2457 55.8875 20.0794C54.6405 19.5806 53.8091 18.583 53.4766 17.1696Z" fill="#E55900"/>
    <path d="M67.2854 114.744C56.2281 114.329 45.5866 112.25 35.4439 107.678C27.7121 104.186 24.3035 98.0338 23.8878 90.1358C23.1396 74.3397 22.3082 58.3774 28.7098 43.3296C29.5411 41.3343 30.6219 39.4222 31.6196 37.51C33.4486 38.0088 33.698 39.5884 34.28 41.0849C34.28 41.9994 33.8643 42.7476 33.4486 43.4959C30.1231 50.8951 28.5435 58.71 28.1278 66.7743C27.8784 71.7625 27.7953 76.6676 27.7953 81.6558C27.7953 86.5609 28.7098 91.2997 30.6219 95.7891C31.6196 98.1169 33.0329 100.029 35.1113 101.442C37.8548 103.271 40.8478 104.768 43.9238 106.098C45.6697 106.846 47.4156 107.013 48.9121 105.682C50.7411 105.017 52.1544 106.347 53.8172 106.514C59.4705 107.678 65.2069 108.176 71.0265 108.675C73.4375 109.839 74.352 112.084 75.0171 114.911C72.2736 114.827 69.7795 115.077 67.2854 114.744Z" fill="#FF7917"/>
    <path d="M67.2812 114.769C69.6091 114.769 71.9369 114.769 74.7636 114.769C73.3503 112.608 73.0177 110.363 71.0224 109.199C71.8538 108.118 73.1008 108.451 74.1816 108.451C80.5 108.534 86.7353 107.786 92.8875 106.206C100.037 104.377 106.189 100.969 110.513 94.8164C110.928 94.2344 111.344 93.5693 112.175 93.5693C114.586 96.4791 117.247 99.2227 118.909 102.714C109.681 110.446 98.3745 112.774 86.9016 114.187C80.4169 115.102 73.8491 115.601 67.2812 114.769Z" fill="#F66800"/>
    <path d="M34.0047 40.7042C33.1734 39.6234 32.4251 38.5426 31.5938 37.4618C36.6651 28.3168 43.7318 21.3333 53.3757 17.0933C54.207 18.0909 55.0384 19.0054 55.7866 20.0031C55.9529 20.9176 55.2047 21.2501 54.7059 21.7489C53.8745 22.5803 53.3757 23.4117 54.1239 24.4925C54.8721 25.5732 55.9529 25.2407 56.9506 24.825C57.6156 24.4925 58.1976 23.9936 58.9458 24.3262C61.1905 27.236 63.5184 30.1458 65.7631 33.0556C65.098 34.0532 64.1003 34.0532 63.1027 34.1364C59.4447 34.4689 55.8698 35.0509 52.2949 36.0485C48.5537 36.7136 45.3114 38.5426 42.2353 40.5379C41.4871 41.0367 40.9051 41.7018 39.9075 41.6187C38.9929 40.621 39.9075 39.8728 40.4063 39.2077C42.8173 35.6328 45.8102 32.723 49.2188 30.0626C49.8839 29.5638 50.6321 28.9819 51.0478 28.2336C51.4635 27.4854 51.5466 26.7372 50.9647 25.9889C50.4659 25.3238 49.7176 25.3238 48.9694 25.4901C48.2212 25.7395 47.5561 26.2383 46.9741 26.7372C42.4847 30.312 38.6604 34.3026 35.6675 39.2077C35.3349 39.8728 35.0855 40.7873 34.0047 40.7042Z" fill="#F66800"/>
    <path d="M51.9203 35.5454C56.4097 33.9658 61.2317 33.7995 65.8874 33.0513C66.8019 33.0513 67.7995 33.1344 68.714 33.1344C71.6238 33.3838 74.5336 33.3838 77.4434 33.1344C84.0112 33.2175 90.4128 33.8826 96.6481 36.2105C102.468 39.7022 105.959 45.1893 108.952 50.9257C110.033 52.921 110.865 54.9994 111.53 57.161C112.195 59.3226 111.945 60.1539 109.867 60.9022C104.712 62.8975 99.641 64.9759 94.4865 66.9712C93.7383 67.3037 92.9901 67.47 92.1587 67.1375C88.3344 64.2277 87.0042 60.4865 88.1681 55.6645C90.1634 54.6669 92.3249 55.0826 94.4865 55.2489C96.4818 55.5814 98.4771 56.1634 100.389 54.9994C100.971 53.1704 100.888 51.4246 100.389 49.5955C99.9736 49.1799 99.4747 49.1799 98.8928 49.1799C96.0661 49.1799 93.2395 49.1799 90.3297 49.1799C89.6646 49.1799 88.9995 49.1799 88.5006 49.7618C87.7524 52.4222 87.8356 55.1657 87.9187 57.8261C88.0018 60.9022 87.3367 63.3963 85.2583 65.8073C83.3461 67.9688 81.6834 70.3798 79.8544 72.6245C79.605 72.9571 79.1893 73.2065 78.8567 73.3727C72.3721 75.6174 66.0536 78.4441 59.6521 80.8551C58.6544 81.2707 57.7399 81.7696 56.6592 81.6864C55.1627 81.437 55.0795 79.608 53.7494 78.9429C52.1698 80.5225 51.4215 82.6009 50.1745 84.3468C49.8419 84.6794 49.5094 84.8456 49.1768 85.0119C46.4333 86.3421 43.5235 87.3398 40.6968 88.4205C38.7016 89.1688 37.787 88.7531 37.3714 86.6747C36.1243 79.5249 35.4592 72.3751 36.0412 65.1422C36.54 59.9045 37.3714 54.75 39.4498 49.9281C42.027 43.7759 45.8513 38.7046 51.9203 35.5454Z" fill="#FFE4C3"/>
    <path d="M112.154 93.6304C105.337 104.521 94.4459 107.514 82.7236 108.678C78.8161 109.094 74.9087 109.011 71.0013 109.177C65.0985 109.094 59.2789 108.263 53.4593 107.099C52.1292 106.184 53.2099 105.27 53.7088 104.605C57.1174 100.281 60.2766 95.792 63.8515 91.6351C64.1009 91.3857 64.3503 91.2195 64.5997 91.1363C75.8232 86.4806 87.1299 82.1575 98.3534 77.6681C98.9353 77.4187 99.6004 77.1693 100.265 77.3356C101.18 77.585 101.679 78.3332 102.178 78.9983C105.42 83.072 108.413 87.2289 111.655 91.3026C111.988 91.8014 112.403 92.2171 112.154 92.8822C112.154 93.1316 112.154 93.381 112.154 93.6304Z" fill="#CB0100"/>
    <path d="M112.196 92.9088C111.946 92.4931 111.697 92.0774 111.364 91.6617C110.782 90.4978 110.616 89.3339 110.699 88.0037C110.782 84.1794 110.034 80.4382 109.535 76.6139C109.452 76.1151 109.369 75.5332 108.787 75.1175C106.127 75.45 103.799 77.279 101.055 77.6947C100.39 77.5285 99.7251 77.4453 99.3094 76.8634C97.0647 73.7873 94.3212 71.0438 92.4922 67.6351C92.4922 67.4689 92.4922 67.2195 92.5753 67.0532C98.8937 64.6422 105.129 62.2312 111.531 59.7371C109.12 50.0932 103.799 42.6109 96.649 36.2925C105.462 38.2046 113.276 46.5183 114.607 55.2477C116.186 65.723 117.018 76.1983 115.022 86.6735C114.524 88.9182 113.942 91.1629 112.196 92.9088Z" fill="#FFC27D"/>
    <path d="M59.0691 24.3322C57.3232 25.0805 55.4111 27.4914 53.5821 24.831C51.8362 22.3369 54.4966 21.3393 55.9099 20.0091C57.4895 19.1777 59.1522 18.0138 60.5656 20.0922C61.8958 22.0044 60.3993 23.2514 59.0691 24.3322Z" fill="white"/>
    <path d="M77.4169 33.1428C74.5071 33.7248 71.5973 33.7248 68.6875 33.1428C71.5973 33.1428 74.5071 33.1428 77.4169 33.1428Z" fill="#FCE9C9"/>
    <path d="M34.0187 40.6762C37.5104 34.7735 41.9998 29.7021 47.57 25.5453C48.9834 24.5477 50.3967 24.0488 51.5606 25.5453C52.8908 27.1249 52.1426 28.4551 50.7292 29.619C46.4061 33.0276 42.4155 36.6025 39.7551 41.5076C40.0045 42.339 39.5057 43.0041 39.1732 43.7523C35.5983 50.4864 33.9355 57.7193 33.3536 65.2848C32.9379 71.1875 33.1873 77.0903 33.021 82.993C32.9379 85.4871 33.4367 87.8981 34.0187 90.2259C34.9332 93.8839 36.7622 96.7937 40.1708 98.6228C41.0853 99.2047 41.9998 99.6204 42.9143 100.036C44.3277 100.867 45.9904 101.283 47.4037 102.031C49.3159 103.029 49.8147 104.193 48.9834 105.939C48.0688 107.602 46.7386 107.851 44.9096 107.269C33.7693 103.86 27.4509 96.6275 27.2015 84.7389C27.0352 69.6911 26.7026 54.5601 34.0187 40.6762Z" fill="white"/>
    <path d="M49.06 105.976C49.3094 101.32 44.4875 102.567 42.4922 100.488C42.6585 99.8234 43.1573 99.4908 43.7392 99.2414C50.0577 96.7473 56.2098 94.0038 62.6945 91.8422C63.1933 91.7591 63.6921 91.5928 64.191 92.0085C60.8655 96.3316 57.54 100.738 54.2145 105.061C53.7988 105.643 52.8843 106.142 53.5494 107.139C52.053 106.724 50.5565 106.308 49.06 105.976Z" fill="#E95700"/>
    <path d="M40.272 99.2331C35.8657 97.4873 33.7041 93.8292 33.2053 89.5892C31.4594 74.5414 31.1269 59.4936 37.5284 45.2772C38.1104 43.947 39.0249 42.7831 39.69 41.536C43.4312 39.0419 47.1723 36.4647 51.828 35.6333C33.3716 49.6003 35.3669 68.805 37.9441 88.6747C42.0178 87.1783 45.5927 85.9312 49.0845 84.601C49.5833 85.3492 49.0845 86.0143 48.7519 86.5963C46.4241 90.5037 44.0131 94.328 41.6853 98.2355C41.4359 98.7343 41.1865 99.4825 40.272 99.2331Z" fill="#FFC27D"/>
    <path d="M92.5404 67.3697C95.2008 70.6952 97.8612 74.0207 100.522 77.4293C100.688 77.5125 100.688 77.5956 100.605 77.6787C100.522 77.7619 100.522 77.7619 100.438 77.7619C88.8824 82.2513 77.3263 86.8238 65.7703 91.3132C65.4377 91.4795 65.022 91.5626 64.6064 91.6458C64.2738 90.8144 64.8558 90.2324 65.2714 89.6505C69.0957 84.496 73.0032 79.4246 76.9938 74.3533C77.4095 73.7713 77.9914 73.2725 78.5734 72.9399C78.8228 72.7736 78.9891 72.6905 79.2385 72.5242C80.8181 70.9446 82.8134 70.4458 84.8086 69.6976C86.5545 68.9493 88.3004 68.2843 90.1294 67.6192C90.8776 67.2035 91.709 66.7046 92.5404 67.3697Z" fill="#D40100"/>
    <path d="M40.2812 99.202C43.2742 94.2969 46.184 89.3918 49.1769 84.4867C49.4263 84.3204 49.5926 84.1542 49.842 83.9879C51.671 82.4914 53.7494 81.4106 56.1604 81.4106C56.8255 81.4106 57.2412 81.8263 57.5738 82.4083C59.3196 85.3181 61.1486 88.1447 62.8945 91.0545C63.1439 91.4702 63.3102 91.8859 63.0608 92.3847C56.2436 95.0451 49.4263 97.7886 42.6091 100.449C41.8609 100.033 41.1126 99.6177 40.2812 99.202Z" fill="#F38500"/>
    <path d="M63.0364 92.4143C60.7917 88.8394 58.4638 85.2645 56.2191 81.6896C56.136 81.6065 56.0529 81.5233 56.136 81.4402C56.136 81.357 56.2191 81.3571 56.2191 81.3571C62.787 78.7798 69.3548 76.2857 75.9226 73.7084C76.754 73.3759 77.6685 73.2096 78.583 72.9602C73.9273 79.1955 69.2717 85.4308 64.616 91.666C64.4497 91.7492 64.2834 91.9155 64.2003 91.9986C63.7846 92.1649 63.4521 92.248 63.0364 92.4143Z" fill="#FFC27D"/>
    <path d="M92.5519 67.398C88.1457 69.1439 83.7394 70.8066 79.25 72.5525C79.3331 72.3862 79.4163 72.1368 79.4994 72.0537C85.9841 65.8184 88.7276 58.2529 87.3974 49.2741C87.3974 49.191 87.4806 49.1079 87.4806 49.1079C91.8868 48.7753 96.3762 48.6922 100.782 49.1079C100.949 51.2694 101.115 53.5141 101.198 55.6757C98.9535 56.3408 96.7088 56.0082 94.4641 55.842C92.4688 55.842 90.4735 55.842 88.5613 55.842C86.8986 60.5808 89.4759 63.9063 92.3857 66.9823C92.5519 67.1486 92.5519 67.2317 92.5519 67.398Z" fill="#EC0300"/>
    <path d="M58.425 84.1837C58.425 84.2668 58.425 84.4331 58.425 84.5162C56.2634 85.2645 54.1019 86.0958 52.0234 86.8441C53.2705 84.7657 54.4344 82.6041 55.8477 80.1931C56.8454 81.6896 57.6768 82.9366 58.425 84.1837Z" fill="#FAC903"/>
    <path d="M100.898 49.0803C96.4085 49.0803 91.9191 49.1635 87.4297 49.1635C91.9191 48.1658 96.4085 48.4152 100.898 49.0803Z" fill="#FFEFCC"/>
    <path d="M94.6484 55.8042C96.8931 55.7211 99.1378 55.6379 101.383 55.6379C99.1378 56.6356 96.8931 56.303 94.6484 55.8042Z" fill="#FBE8C5"/>
    <path d="M100.469 77.7099C100.469 77.6268 100.469 77.5437 100.469 77.3774C103.462 76.2135 106.371 75.0495 109.614 73.8025C110.944 79.7884 111.609 85.6911 111.36 91.5938C107.785 87.0213 104.127 82.3656 100.469 77.7099Z" fill="#F47F37"/>
  </g>
</svg>