<svg width="430" height="430" viewBox="0 0 430 430" fill="none" xmlns="http://www.w3.org/2000/svg">
<path d="M425 215C425 218.519 424.912 222.037 424.735 225.551" stroke="#242833" stroke-width="9.625" stroke-linecap="square" stroke-linejoin="round"/>
<path d="M423.58 239.38C423.172 242.874 422.675 246.359 422.092 249.829" stroke="#FF521C" stroke-width="9.625" stroke-linecap="square" stroke-linejoin="round"/>
<path d="M419.337 263.441C418.525 266.865 417.627 270.268 416.645 273.647" stroke="#FDD134" stroke-width="9.625" stroke-linecap="square" stroke-linejoin="round"/>
<path d="M412.327 286.847C411.123 290.154 409.836 293.429 408.468 296.671" stroke="#FF521C" stroke-width="9.625" stroke-linecap="square" stroke-linejoin="round"/>
<path d="M402.646 309.281C401.067 312.425 399.408 315.529 397.672 318.59" stroke="#242833" stroke-width="9.625" stroke-linecap="square" stroke-linejoin="round"/>
<path d="M390.426 330.438C388.491 333.377 386.483 336.268 384.404 339.106" stroke="#FF521C" stroke-width="9.625" stroke-linecap="square" stroke-linejoin="round"/>
<path d="M375.83 350.032C373.567 352.727 371.237 355.365 368.842 357.942" stroke="#242833" stroke-width="9.625" stroke-linecap="square" stroke-linejoin="round"/>
<path d="M359.057 367.799C356.497 370.213 353.877 372.562 351.198 374.844" stroke="#FF521C" stroke-width="9.625" stroke-linecap="square" stroke-linejoin="round"/>
<path d="M340.335 383.497C337.511 385.597 334.636 387.626 331.71 389.581" stroke="#20E242" stroke-width="9.625" stroke-linecap="square" stroke-linejoin="round"/>
<path d="M319.915 396.914C316.867 398.672 313.775 400.353 310.643 401.956" stroke="#FF521C" stroke-width="9.625" stroke-linecap="square" stroke-linejoin="round"/>
<path d="M298.076 407.869C294.844 409.261 291.578 410.572 288.28 411.799" stroke="#20E242" stroke-width="9.625" stroke-linecap="square" stroke-linejoin="round"/>
<path d="M275.112 416.213C271.74 417.22 268.344 418.142 264.926 418.979" stroke="#FF521C" stroke-width="9.625" stroke-linecap="square" stroke-linejoin="round"/>
<path d="M251.334 421.833C247.868 422.442 244.388 422.963 240.896 423.397" stroke="#242833" stroke-width="9.625" stroke-linecap="square" stroke-linejoin="round"/>
<path d="M227.064 424.653C223.551 424.855 220.034 424.969 216.515 424.995" stroke="#FF521C" stroke-width="9.625" stroke-linecap="square" stroke-linejoin="round"/>
<path d="M202.631 424.635C199.118 424.428 195.611 424.133 192.114 423.749" stroke="#242833" stroke-width="9.625" stroke-linecap="square" stroke-linejoin="round"/>
<path d="M178.365 421.78C174.901 421.166 171.452 420.465 168.022 419.678" stroke="#FF521C" stroke-width="9.625" stroke-linecap="square" stroke-linejoin="round"/>
<path d="M154.596 416.125C151.226 415.113 147.882 414.016 144.567 412.836" stroke="#242833" stroke-width="9.625" stroke-linecap="square" stroke-linejoin="round"/>
<path d="M131.644 407.748C128.414 406.351 125.22 404.873 122.065 403.316" stroke="#FF521C" stroke-width="9.625" stroke-linecap="square" stroke-linejoin="round"/>
<path d="M109.82 396.761C106.775 394.999 103.774 393.16 100.821 391.247" stroke="#20E242" stroke-width="9.625" stroke-linecap="square" stroke-linejoin="round"/>
<path d="M89.4204 383.314C86.6001 381.21 83.8331 379.035 81.1221 376.792" stroke="#FF521C" stroke-width="9.625" stroke-linecap="square" stroke-linejoin="round"/>
<path d="M70.7205 367.589C68.1637 365.172 65.6681 362.69 63.236 360.147" stroke="#20E242" stroke-width="9.625" stroke-linecap="square" stroke-linejoin="round"/>
<path d="M53.9737 349.798C51.715 347.1 49.5245 344.345 47.4043 341.537" stroke="#FF521C" stroke-width="9.625" stroke-linecap="square" stroke-linejoin="round"/>
<path d="M39.4067 330.182C37.4767 327.24 35.6209 324.25 33.8412 321.214" stroke="#242833" stroke-width="9.625" stroke-linecap="square" stroke-linejoin="round"/>
<path d="M27.2167 309.008C25.6415 305.861 24.1456 302.675 22.7305 299.454" stroke="#FF521C" stroke-width="9.625" stroke-linecap="square" stroke-linejoin="round"/>
<path d="M17.5686 286.56C16.3695 283.252 15.2538 279.914 14.2225 276.55" stroke="#242833" stroke-width="9.625" stroke-linecap="square" stroke-linejoin="round"/>
<path d="M10.5932 263.144C9.78645 259.719 9.06596 256.274 8.43237 252.813" stroke="#FF521C" stroke-width="9.625" stroke-linecap="square" stroke-linejoin="round"/>
<path d="M6.3847 239.076C5.98128 235.581 5.66578 232.075 5.43851 228.564" stroke="#242833" stroke-width="9.625" stroke-linecap="square" stroke-linejoin="round"/>
<path d="M5.00024 214.682C5.00556 211.164 5.09933 207.646 5.28144 204.131" stroke="#FF521C" stroke-width="9.625" stroke-linecap="square" stroke-linejoin="round"/>
<path d="M6.4585 190.293C6.8725 186.799 7.37425 183.315 7.96329 179.846" stroke="#242833" stroke-width="9.625" stroke-linecap="square" stroke-linejoin="round"/>
<path d="M10.7398 166.238C11.5568 162.815 12.4598 159.414 13.4478 156.036" stroke="#FF521C" stroke-width="9.625" stroke-linecap="square" stroke-linejoin="round"/>
<path d="M17.786 142.843C18.9951 139.538 20.287 136.265 21.6606 133.025" stroke="#242833" stroke-width="9.625" stroke-linecap="square" stroke-linejoin="round"/>
<path d="M27.502 120.425C29.0867 117.283 30.7501 114.182 32.4906 111.123" stroke="#FF521C" stroke-width="9.625" stroke-linecap="square" stroke-linejoin="round"/>
<path d="M39.756 99.2868C41.6949 96.3504 43.7073 93.4632 45.7913 90.628" stroke="#20E242" stroke-width="9.625" stroke-linecap="square" stroke-linejoin="round"/>
<path d="M54.3823 79.7153C56.6491 77.024 58.9832 74.3901 61.3824 71.8161" stroke="#FF521C" stroke-width="9.625" stroke-linecap="square" stroke-linejoin="round"/>
<path d="M71.1828 61.9751C73.7469 59.5653 76.3711 57.2203 79.0531 54.9424" stroke="#20E242" stroke-width="9.625" stroke-linecap="square" stroke-linejoin="round"/>
<path d="M89.9302 46.3064C92.7568 44.2107 95.6357 42.1864 98.564 40.2354" stroke="#FF521C" stroke-width="9.625" stroke-linecap="square" stroke-linejoin="round"/>
<path d="M110.371 32.9212C113.421 31.1681 116.516 29.4919 119.651 27.8942" stroke="#242833" stroke-width="9.625" stroke-linecap="square" stroke-linejoin="round"/>
<path d="M132.227 22.0008C135.461 20.6139 138.729 19.3084 142.029 18.0857" stroke="#FF521C" stroke-width="9.625" stroke-linecap="square" stroke-linejoin="round"/>
<path d="M155.205 13.693C158.578 12.6911 161.975 11.7741 165.395 10.9429" stroke="#242833" stroke-width="9.625" stroke-linecap="square" stroke-linejoin="round"/>
<path d="M178.991 8.11026C182.458 7.5069 185.939 6.99076 189.432 6.56234" stroke="#FF521C" stroke-width="9.625" stroke-linecap="square" stroke-linejoin="round"/>
<path d="M203.265 5.32812C206.779 5.13149 210.296 5.0232 213.815 5.00334" stroke="#242833" stroke-width="9.625" stroke-linecap="square" stroke-linejoin="round"/>
<path d="M227.698 5.38427C231.211 5.59704 234.717 5.89806 238.214 6.28704" stroke="#FF521C" stroke-width="9.625" stroke-linecap="square" stroke-linejoin="round"/>
<path d="M251.959 8.27795C255.423 8.89724 258.871 9.6035 262.299 10.396" stroke="#20E242" stroke-width="9.625" stroke-linecap="square" stroke-linejoin="round"/>
<path d="M275.72 13.97C279.089 14.9874 282.431 16.0894 285.744 17.2747" stroke="#242833" stroke-width="9.625" stroke-linecap="square" stroke-linejoin="round"/>
<path d="M298.659 22.3833C301.886 23.7851 305.078 25.2678 308.231 26.83" stroke="#20E242" stroke-width="9.625" stroke-linecap="square" stroke-linejoin="round"/>
<path d="M320.465 33.4041C323.508 35.1712 326.506 37.0146 329.456 38.9324" stroke="#FF521C" stroke-width="9.625" stroke-linecap="square" stroke-linejoin="round"/>
<path d="M340.844 46.8831C343.661 48.9917 346.424 51.1708 349.132 53.4183" stroke="#242833" stroke-width="9.625" stroke-linecap="square" stroke-linejoin="round"/>
<path d="M359.519 62.6377C362.072 65.0593 364.564 67.5447 366.992 70.0914" stroke="#FF521C" stroke-width="9.625" stroke-linecap="square" stroke-linejoin="round"/>
<path d="M376.238 80.455C378.492 83.1567 380.678 85.9146 382.794 88.7262" stroke="#242833" stroke-width="9.625" stroke-linecap="square" stroke-linejoin="round"/>
<path d="M390.774 100.094C392.699 103.039 394.55 106.032 396.325 109.07" stroke="#FF521C" stroke-width="9.625" stroke-linecap="square" stroke-linejoin="round"/>
<path d="M402.931 121.288C404.501 124.436 405.992 127.624 407.402 130.848" stroke="#20E242" stroke-width="9.625" stroke-linecap="square" stroke-linejoin="round"/>
<path d="M412.544 143.75C413.737 147.06 414.848 150.4 415.874 153.766" stroke="#FF521C" stroke-width="9.625" stroke-linecap="square" stroke-linejoin="round"/>
<path d="M419.482 167.177C420.284 170.604 420.999 174.049 421.627 177.512" stroke="#20E242" stroke-width="9.625" stroke-linecap="square" stroke-linejoin="round"/>
<path d="M423.653 191.252C424.051 194.748 424.361 198.253 424.583 201.765" stroke="#FF521C" stroke-width="9.625" stroke-linecap="square" stroke-linejoin="round"/>
</svg>
