<svg width="25" height="24" viewBox="0 0 25 24" fill="none" xmlns="http://www.w3.org/2000/svg">
<path fill-rule="evenodd" clip-rule="evenodd" d="M21.666 10.2351H3.66602L3.66602 14.6302C3.666 15.4352 3.66599 16.0996 3.71021 16.6408C3.75614 17.2029 3.8547 17.7196 4.10199 18.2049C4.48548 18.9576 5.09741 19.5695 5.85006 19.953C6.33539 20.2003 6.85209 20.2988 7.41419 20.3448C7.95539 20.389 8.61976 20.389 9.42474 20.3889H15.9073C16.7123 20.389 17.3766 20.389 17.9178 20.3448C18.4799 20.2988 18.9966 20.2003 19.482 19.953C20.2346 19.5695 20.8465 18.9576 21.23 18.2049C21.4773 17.7196 21.5759 17.2029 21.6218 16.6408C21.666 16.0996 21.666 15.4352 21.666 14.6303V10.2351ZM9.66602 13.2351C9.66602 12.6828 10.1137 12.2351 10.666 12.2351H14.666C15.2183 12.2351 15.666 12.6828 15.666 13.2351C15.666 13.7874 15.2183 14.2351 14.666 14.2351H10.666C10.1137 14.2351 9.66602 13.7874 9.66602 13.2351Z" fill="url(#paint0_linear_1021_66857)"/>
<path d="M21.6218 7.3595C21.5759 6.7974 21.4773 6.2807 21.23 5.79536C20.8466 5.04272 20.2346 4.43079 19.482 4.0473C18.9966 3.80001 18.4799 3.70145 17.9178 3.65552C17.3766 3.6113 16.7123 3.61132 15.9073 3.61133L9.42474 3.61133C8.61976 3.61132 7.95539 3.61131 7.41419 3.65552C6.85209 3.70145 6.33539 3.80001 5.85006 4.0473C5.09741 4.43079 4.48549 5.04272 4.102 5.79536C3.8547 6.2807 3.75614 6.7974 3.71021 7.3595L3.71021 8.22669L21.6218 8.22669V7.3595Z" fill="url(#paint1_linear_1021_66857)"/>
<defs>
<linearGradient id="paint0_linear_1021_66857" x1="12.666" y1="3.61133" x2="12.666" y2="20.3889" gradientUnits="userSpaceOnUse">
<stop stop-color="white"/>
<stop offset="1" stop-color="#CBD5E1"/>
</linearGradient>
<linearGradient id="paint1_linear_1021_66857" x1="12.666" y1="3.61133" x2="12.666" y2="20.3889" gradientUnits="userSpaceOnUse">
<stop stop-color="white"/>
<stop offset="1" stop-color="#CBD5E1"/>
</linearGradient>
</defs>
</svg>
