<svg width="20" height="14" viewBox="0 0 20 14" fill="none" xmlns="http://www.w3.org/2000/svg">
<rect width="19.6" height="14" rx="2" fill="white"/>
<mask id="mask0_28_10950" style="mask-type:luminance" maskUnits="userSpaceOnUse" x="0" y="0" width="20" height="14">
<rect width="19.6" height="14" rx="2" fill="white"/>
</mask>
<g mask="url(#mask0_28_10950)">
<path fill-rule="evenodd" clip-rule="evenodd" d="M19.6 0H0V0.933333H19.6V0ZM19.6 1.86667H0V2.8H19.6V1.86667ZM0 3.73333H19.6V4.66667H0V3.73333ZM19.6 5.6H0V6.53333H19.6V5.6ZM0 7.46667H19.6V8.4H0V7.46667ZM19.6 9.33333H0V10.2667H19.6V9.33333ZM0 11.2H19.6V12.1333H0V11.2ZM19.6 13.0667H0V14H19.6V13.0667Z" fill="#D02F44"/>
<rect width="8.4" height="6.53333" fill="#46467F"/>
<g filter="url(#filter0_d_28_10950)">
<path fill-rule="evenodd" clip-rule="evenodd" d="M1.86644 1.40002C1.86644 1.65775 1.65751 1.86668 1.39977 1.86668C1.14204 1.86668 0.933105 1.65775 0.933105 1.40002C0.933105 1.14228 1.14204 0.93335 1.39977 0.93335C1.65751 0.93335 1.86644 1.14228 1.86644 1.40002ZM3.73333 1.40002C3.73333 1.65775 3.5244 1.86668 3.26667 1.86668C3.00893 1.86668 2.8 1.65775 2.8 1.40002C2.8 1.14228 3.00893 0.93335 3.26667 0.93335C3.5244 0.93335 3.73333 1.14228 3.73333 1.40002ZM5.13288 1.86668C5.39061 1.86668 5.59955 1.65775 5.59955 1.40002C5.59955 1.14228 5.39061 0.93335 5.13288 0.93335C4.87515 0.93335 4.66621 1.14228 4.66621 1.40002C4.66621 1.65775 4.87515 1.86668 5.13288 1.86668ZM7.46644 1.40002C7.46644 1.65775 7.25751 1.86668 6.99977 1.86668C6.74204 1.86668 6.53311 1.65775 6.53311 1.40002C6.53311 1.14228 6.74204 0.93335 6.99977 0.93335C7.25751 0.93335 7.46644 1.14228 7.46644 1.40002ZM2.33288 2.8C2.59061 2.8 2.79954 2.59107 2.79954 2.33334C2.79954 2.0756 2.59061 1.86667 2.33288 1.86667C2.07514 1.86667 1.86621 2.0756 1.86621 2.33334C1.86621 2.59107 2.07514 2.8 2.33288 2.8ZM4.66644 2.33335C4.66644 2.59108 4.45751 2.80002 4.19977 2.80002C3.94204 2.80002 3.73311 2.59108 3.73311 2.33335C3.73311 2.07562 3.94204 1.86668 4.19977 1.86668C4.45751 1.86668 4.66644 2.07562 4.66644 2.33335ZM6.06667 2.8C6.3244 2.8 6.53333 2.59107 6.53333 2.33334C6.53333 2.0756 6.3244 1.86667 6.06667 1.86667C5.80893 1.86667 5.6 2.0756 5.6 2.33334C5.6 2.59107 5.80893 2.8 6.06667 2.8ZM7.46644 3.26668C7.46644 3.52442 7.25751 3.73335 6.99977 3.73335C6.74204 3.73335 6.53311 3.52442 6.53311 3.26668C6.53311 3.00895 6.74204 2.80002 6.99977 2.80002C7.25751 2.80002 7.46644 3.00895 7.46644 3.26668ZM5.13288 3.73336C5.39061 3.73336 5.59955 3.52443 5.59955 3.2667C5.59955 3.00896 5.39061 2.80003 5.13288 2.80003C4.87515 2.80003 4.66621 3.00896 4.66621 3.2667C4.66621 3.52443 4.87515 3.73336 5.13288 3.73336ZM3.73333 3.2667C3.73333 3.52443 3.5244 3.73336 3.26667 3.73336C3.00893 3.73336 2.8 3.52443 2.8 3.2667C2.8 3.00896 3.00893 2.80003 3.26667 2.80003C3.5244 2.80003 3.73333 3.00896 3.73333 3.2667ZM1.39977 3.73335C1.65751 3.73335 1.86644 3.52442 1.86644 3.26668C1.86644 3.00895 1.65751 2.80002 1.39977 2.80002C1.14204 2.80002 0.933105 3.00895 0.933105 3.26668C0.933105 3.52442 1.14204 3.73335 1.39977 3.73335ZM2.79954 4.20002C2.79954 4.45775 2.59061 4.66668 2.33288 4.66668C2.07514 4.66668 1.86621 4.45775 1.86621 4.20002C1.86621 3.94228 2.07514 3.73335 2.33288 3.73335C2.59061 3.73335 2.79954 3.94228 2.79954 4.20002ZM4.19977 4.66668C4.45751 4.66668 4.66644 4.45775 4.66644 4.20002C4.66644 3.94228 4.45751 3.73335 4.19977 3.73335C3.94204 3.73335 3.73311 3.94228 3.73311 4.20002C3.73311 4.45775 3.94204 4.66668 4.19977 4.66668ZM6.53333 4.20002C6.53333 4.45775 6.3244 4.66668 6.06667 4.66668C5.80893 4.66668 5.6 4.45775 5.6 4.20002C5.6 3.94228 5.80893 3.73335 6.06667 3.73335C6.3244 3.73335 6.53333 3.94228 6.53333 4.20002ZM6.99977 5.60002C7.25751 5.60002 7.46644 5.39108 7.46644 5.13335C7.46644 4.87562 7.25751 4.66668 6.99977 4.66668C6.74204 4.66668 6.53311 4.87562 6.53311 5.13335C6.53311 5.39108 6.74204 5.60002 6.99977 5.60002ZM5.59955 5.13334C5.59955 5.39107 5.39061 5.6 5.13288 5.6C4.87515 5.6 4.66621 5.39107 4.66621 5.13334C4.66621 4.8756 4.87515 4.66667 5.13288 4.66667C5.39061 4.66667 5.59955 4.8756 5.59955 5.13334ZM3.26667 5.6C3.5244 5.6 3.73333 5.39107 3.73333 5.13334C3.73333 4.8756 3.5244 4.66667 3.26667 4.66667C3.00893 4.66667 2.8 4.8756 2.8 5.13334C2.8 5.39107 3.00893 5.6 3.26667 5.6ZM1.86644 5.13335C1.86644 5.39108 1.65751 5.60002 1.39977 5.60002C1.14204 5.60002 0.933105 5.39108 0.933105 5.13335C0.933105 4.87562 1.14204 4.66668 1.39977 4.66668C1.65751 4.66668 1.86644 4.87562 1.86644 5.13335Z" fill="url(#paint0_linear_28_10950)"/>
</g>
</g>
<defs>
<filter id="filter0_d_28_10950" x="0.933105" y="0.93335" width="6.53333" height="5.66663" filterUnits="userSpaceOnUse" color-interpolation-filters="sRGB">
<feFlood flood-opacity="0" result="BackgroundImageFix"/>
<feColorMatrix in="SourceAlpha" type="matrix" values="0 0 0 0 0 0 0 0 0 0 0 0 0 0 0 0 0 0 127 0" result="hardAlpha"/>
<feOffset dy="1"/>
<feColorMatrix type="matrix" values="0 0 0 0 0 0 0 0 0 0 0 0 0 0 0 0 0 0 0.06 0"/>
<feBlend mode="normal" in2="BackgroundImageFix" result="effect1_dropShadow_28_10950"/>
<feBlend mode="normal" in="SourceGraphic" in2="effect1_dropShadow_28_10950" result="shape"/>
</filter>
<linearGradient id="paint0_linear_28_10950" x1="0.933105" y1="0.93335" x2="0.933105" y2="5.60002" gradientUnits="userSpaceOnUse">
<stop stop-color="white"/>
<stop offset="1" stop-color="#F0F0F0"/>
</linearGradient>
</defs>
</svg>
