<svg width="50" height="50" viewBox="0 0 50 50" fill="none" xmlns="http://www.w3.org/2000/svg">
  <g clip-path="url(#clip0_264_28763)">
    <path fill-rule="evenodd" clip-rule="evenodd"
      d="M25 0C38.8081 0 50 11.1919 50 25C50 38.8081 38.8081 50 25 50C11.1919 50 0 38.8081 0 25C0 11.1919 11.1919 0 25 0Z"
      fill="#F0B90B" />
    <path
      d="M13.74 25.0003L13.758 31.6109L19.375 34.9162V38.7864L10.4708 33.564V23.0672L13.74 25.0003ZM13.74 18.3897V22.2419L10.4688 20.3068V16.4546L13.74 14.5195L17.0272 16.4546L13.74 18.3897ZM21.7208 16.4546L24.992 14.5195L28.2792 16.4546L24.992 18.3897L21.7208 16.4546Z"
      fill="white" />
    <path
      d="M16.1038 30.2407V26.3705L19.375 28.3056V32.1578L16.1038 30.2407ZM21.7207 36.3024L24.992 38.2375L28.2792 36.3024V40.1545L24.992 42.0896L21.7207 40.1545V36.3024ZM32.9707 16.4546L36.242 14.5195L39.5292 16.4546V20.3068L36.242 22.2419V18.3897L32.9707 16.4546ZM36.242 31.6109L36.26 25.0003L39.5312 23.0652V33.562L30.627 38.7844V34.9142L36.242 31.6109Z"
      fill="white" />
    <path d="M33.8962 30.2403L30.625 32.1574V28.3052L33.8962 26.3701V30.2403Z" fill="white" />
    <path
      d="M33.8962 19.7601L33.9143 23.6303L28.2812 26.9356V33.5622L25.01 35.4792L21.7388 33.5622V26.9356L16.1058 23.6303V19.7601L19.391 17.825L24.99 21.1463L30.623 17.825L33.9102 19.7601H33.8962ZM16.1038 13.1515L24.992 7.91113L33.8962 13.1515L30.625 15.0866L24.992 11.7653L19.375 15.0866L16.1038 13.1515Z"
      fill="white" />
  </g>
  <defs>
    <clipPath id="clip0_264_28763">
      <rect width="50" height="50" fill="white" />
    </clipPath>
  </defs>
</svg>