<svg width="50" height="50" viewBox="0 0 50 50" fill="none" xmlns="http://www.w3.org/2000/svg">
<path d="M49.2524 31.0479C45.9131 44.441 32.3465 52.5918 18.9503 49.252C5.5597 45.913 -2.592 32.3471 0.748805 18.9551C4.08668 5.56053 17.6533 -2.59087 31.0453 0.748092C44.4406 4.08705 52.5918 17.6544 49.2521 31.0482L49.2523 31.0479H49.2524Z" fill="#F7931A"/>
<path d="M36.0252 21.4386C36.5229 18.1116 33.9896 16.3232 30.5257 15.1302L31.6494 10.6235L28.9057 9.93989L27.8118 14.3279C27.0905 14.1481 26.3498 13.9786 25.6136 13.8105L26.7154 9.39354L23.9735 8.70996L22.8491 13.2152C22.2522 13.0793 21.666 12.945 21.0972 12.8035L21.1004 12.7893L17.3168 11.8446L16.5869 14.7747C16.5869 14.7747 18.6225 15.2412 18.5796 15.27C19.6906 15.5472 19.8916 16.2826 19.8582 16.8655L18.5781 21.9997C18.6547 22.0191 18.7539 22.0472 18.8634 22.0912C18.7719 22.0685 18.6745 22.0437 18.5734 22.0195L16.7792 29.2118C16.6434 29.5493 16.2988 30.0558 15.522 29.8634C15.5495 29.9033 13.5278 29.3658 13.5278 29.3658L12.1656 32.5061L15.7361 33.3961C16.4003 33.5626 17.0512 33.7369 17.6922 33.9008L16.5569 38.4592L19.2974 39.1427L20.4217 34.6327C21.1704 34.836 21.897 35.0234 22.6082 35.2001L21.4877 39.6888L24.2315 40.3724L25.3667 35.8226C30.0452 36.7079 33.5631 36.351 35.0439 32.1197C36.237 28.7131 34.9845 26.7481 32.5231 25.4667C34.3158 25.0533 35.6662 23.8744 36.0262 21.4389L36.0253 21.4383L36.0252 21.4386ZM29.7566 30.2278C28.9087 33.6345 23.1722 31.793 21.3124 31.3312L22.819 25.2921C24.6788 25.7563 30.6427 26.675 29.7567 30.2278H29.7566ZM30.6051 21.3892C29.8316 24.4879 25.0571 22.9136 23.5083 22.5276L24.8743 17.0505C26.4231 17.4365 31.4108 18.157 30.6053 21.3892H30.6051Z" fill="white"/>
</svg>
