<svg width="58" height="50" viewBox="0 0 58 50" fill="none" xmlns="http://www.w3.org/2000/svg">
<g clip-path="url(#clip0_264_28757)">
<path fill-rule="evenodd" clip-rule="evenodd" d="M10.5243 0.245571L0.0440327 22.2593C0.00415233 22.3412 -0.00848549 22.4337 0.00796735 22.5233C0.0244202 22.6128 0.0691006 22.6948 0.135474 22.7572L28.4401 49.8798C28.5205 49.9569 28.6276 50 28.739 50C28.8504 50 28.9574 49.9569 29.0378 49.8798L57.3424 22.7589C57.4088 22.6965 57.4535 22.6145 57.4699 22.525C57.4864 22.4354 57.4738 22.3429 57.4339 22.261L46.9536 0.247264C46.9198 0.173333 46.8654 0.110703 46.797 0.0668611C46.7285 0.023019 46.6489 -0.000181357 46.5676 3.27706e-05H10.9137C10.8321 -0.000983524 10.7518 0.021658 10.6827 0.0652261C10.6136 0.108794 10.5586 0.171428 10.5243 0.245571Z" fill="#50AF95"/>
<path fill-rule="evenodd" clip-rule="evenodd" d="M32.3755 24.52C32.1723 24.5353 31.1224 24.5979 28.7804 24.5979C26.9177 24.5979 25.5952 24.542 25.1312 24.52C17.9327 24.2034 12.5597 22.9503 12.5597 21.45C12.5597 19.9496 17.9327 18.6982 25.1312 18.3765V23.272C25.602 23.3059 26.9499 23.3855 28.8126 23.3855C31.0479 23.3855 32.1672 23.2923 32.3687 23.2737V18.3799C39.5519 18.6999 44.9131 19.953 44.9131 21.45C44.9131 22.9469 39.5536 24.2 32.3687 24.5183L32.3755 24.52ZM32.3755 17.8736V13.4928H42.4002V6.8125H15.1065V13.4928H25.1295V17.8719C16.9828 18.2461 10.8562 19.8599 10.8562 21.7937C10.8562 23.7275 16.9828 25.3396 25.1295 25.7155V39.7535H32.3738V25.7105C40.5019 25.3362 46.6184 23.7241 46.6184 21.792C46.6184 19.8599 40.507 18.2478 32.3738 17.8719L32.3755 17.8736Z" fill="white"/>
</g>
<defs>
<clipPath id="clip0_264_28757">
<rect width="57.4779" height="50" fill="white"/>
</clipPath>
</defs>
</svg>
