<svg width="36" height="36" viewBox="0 0 36 36" fill="none" xmlns="http://www.w3.org/2000/svg">
<rect width="36" height="36" rx="18" fill="#4359DB"/>
<path d="M23.5535 12.9745C22.5178 12.5193 21.4103 12.1884 20.2526 12C20.1104 12.2415 19.9443 12.5664 19.8297 12.8248C18.599 12.6509 17.3796 12.6509 16.1714 12.8248C16.0569 12.5664 15.887 12.2415 15.7436 12C14.5845 12.1884 13.4758 12.5205 12.4401 12.9769C10.3511 15.9428 9.78479 18.835 10.0679 21.6861C11.4535 22.6583 12.7963 23.2487 14.1164 23.6351C14.4423 23.2137 14.733 22.7657 14.9835 22.2935C14.5065 22.1233 14.0497 21.9132 13.618 21.6692C13.7326 21.5895 13.8446 21.5062 13.9528 21.4204C16.5855 22.5773 19.4459 22.5773 22.0472 21.4204C22.1567 21.5062 22.2687 21.5895 22.3819 21.6692C21.949 21.9143 21.4909 22.1244 21.014 22.2948C21.2644 22.7657 21.5538 23.2149 21.881 23.6364C23.2024 23.25 24.5464 22.6594 25.932 21.6861C26.2642 18.3809 25.3644 15.5153 23.5535 12.9745ZM15.3421 19.9327C14.5518 19.9327 13.9037 19.2395 13.9037 18.3954C13.9037 17.5513 14.538 16.8569 15.3421 16.8569C16.1463 16.8569 16.7943 17.5501 16.7805 18.3954C16.7818 19.2395 16.1463 19.9327 15.3421 19.9327ZM20.6578 19.9327C19.8675 19.9327 19.2194 19.2395 19.2194 18.3954C19.2194 17.5513 19.8537 16.8569 20.6578 16.8569C21.462 16.8569 22.1101 17.5501 22.0962 18.3954C22.0962 19.2395 21.462 19.9327 20.6578 19.9327Z" fill="white"/>
</svg>
