<svg width="36" height="36" viewBox="0 0 36 36" fill="none" xmlns="http://www.w3.org/2000/svg">
<rect width="36" height="36" rx="18" fill="#4073F2"/>
<g clip-path="url(#clip0_324_4270)">
<path d="M14.2169 18.5216H15.9707V25.7419C15.9707 25.8845 16.0862 26 16.2288 26H19.2025C19.3451 26 19.4606 25.8845 19.4606 25.7419V18.5556H21.4768C21.6079 18.5556 21.7182 18.4572 21.7332 18.327L22.0394 15.6689C22.0478 15.5958 22.0246 15.5225 21.9757 15.4676C21.9267 15.4127 21.8566 15.3813 21.7831 15.3813H19.4607V13.715C19.4607 13.2127 19.7311 12.958 20.2646 12.958C20.3407 12.958 21.7831 12.958 21.7831 12.958C21.9256 12.958 22.0411 12.8424 22.0411 12.6999V10.26C22.0411 10.1174 21.9256 10.0019 21.7831 10.0019H19.6904C19.6757 10.0012 19.6429 10 19.5946 10C19.2315 10 17.9694 10.0713 16.9724 10.9884C15.8678 12.0048 16.0214 13.2217 16.0581 13.4327V15.3812H14.2169C14.0743 15.3812 13.9588 15.4967 13.9588 15.6393V18.2635C13.9588 18.406 14.0743 18.5216 14.2169 18.5216Z" fill="white"/>
</g>
<defs>
<clipPath id="clip0_324_4270">
<rect width="16" height="16" fill="white" transform="translate(10 10)"/>
</clipPath>
</defs>
</svg>
