<svg width="36" height="36" viewBox="0 0 36 36" fill="none" xmlns="http://www.w3.org/2000/svg">
<rect width="36" height="36" rx="18" fill="#4FB3EB"/>
<g clip-path="url(#clip0_324_4273)">
<path d="M25.6375 12.961C25.3862 13.0725 25.1277 13.1666 24.8637 13.243C25.1763 12.8894 25.4146 12.4734 25.5601 12.0182C25.5928 11.9162 25.559 11.8045 25.4751 11.7377C25.3913 11.671 25.2749 11.663 25.1827 11.7176C24.6219 12.0502 24.0169 12.2892 23.3826 12.429C22.7435 11.8046 21.8756 11.4492 20.9784 11.4492C19.0844 11.4492 17.5436 12.99 17.5436 14.8839C17.5436 15.0331 17.553 15.1814 17.5717 15.3277C15.2216 15.1213 13.0366 13.9662 11.5363 12.1257C11.4828 12.0601 11.4004 12.0247 11.3161 12.0315C11.2317 12.0381 11.1558 12.0857 11.1132 12.1589C10.8089 12.681 10.648 13.2782 10.648 13.8859C10.648 14.7135 10.9435 15.4987 11.4655 16.1123C11.3068 16.0574 11.1528 15.9887 11.0058 15.9071C10.9269 15.8631 10.8305 15.8638 10.7521 15.9088C10.6737 15.9537 10.6245 16.0364 10.6224 16.1268C10.622 16.142 10.622 16.1572 10.622 16.1726C10.622 17.408 11.2869 18.5202 12.3034 19.1264C12.2161 19.1177 12.1288 19.105 12.0421 19.0884C11.9527 19.0714 11.8608 19.1027 11.8005 19.1709C11.7402 19.239 11.7202 19.334 11.748 19.4207C12.1243 20.5954 13.093 21.4594 14.2641 21.7229C13.2927 22.3313 12.182 22.6499 11.016 22.6499C10.7727 22.6499 10.528 22.6356 10.2885 22.6073C10.1695 22.5931 10.0558 22.6634 10.0153 22.7765C9.97473 22.8897 10.0177 23.0159 10.1189 23.0808C11.6168 24.0412 13.3489 24.5489 15.1277 24.5489C18.6247 24.5489 20.8123 22.8999 22.0317 21.5165C23.5522 19.7915 24.4242 17.5084 24.4242 15.2524C24.4242 15.1582 24.4228 15.063 24.4199 14.9681C25.0198 14.5162 25.5362 13.9692 25.9565 13.3405C26.0204 13.245 26.0134 13.1188 25.9395 13.0309C25.8657 12.9429 25.7426 12.9145 25.6375 12.961Z" fill="white"/>
</g>
<defs>
<clipPath id="clip0_324_4273">
<rect width="16" height="16" fill="white" transform="translate(10.0001 9.99951)"/>
</clipPath>
</defs>
</svg>
