<svg width="68" height="40" viewBox="0 0 68 40" fill="none" xmlns="http://www.w3.org/2000/svg">
<path d="M30.3146 13.5938L27.3398 27.2957H30.9456L33.8302 13.5938H30.3146Z" fill="#0072FF"/>
<path d="M25.0863 13.6018L21.3903 22.8867L19.8579 14.954C19.6776 14.0526 18.9564 13.6018 18.2353 13.6018H12.1956L12.1055 13.9624C13.3675 14.2329 14.7197 14.6836 15.6211 15.1343C16.162 15.4047 16.2521 15.6752 16.4324 16.3062L19.2269 27.2137H23.0129L28.7822 13.5117H25.0863V13.6018Z" fill="#0072FF"/>
<path d="M53.119 13.5938H50.0541C49.3329 13.5938 48.7921 13.9544 48.5217 14.5854L43.2031 27.2957H46.899L47.6202 25.2224H52.1274L52.5781 27.2957H55.8233L53.119 13.5938ZM48.7921 22.4279L50.6851 17.2897L51.7668 22.4279H48.7921Z" fill="#0072FF"/>
<path d="M38.521 17.3885C38.521 16.9378 38.9718 16.3969 40.0535 16.2167C40.5944 16.1265 41.9466 16.1265 43.5692 16.8477L44.2001 13.9631C43.3888 13.6926 42.217 13.332 40.8648 13.332C37.3492 13.332 34.9153 15.2251 34.9153 17.8392C34.9153 19.8224 36.7182 20.9041 37.9802 21.5351C39.3324 22.1661 39.7831 22.6169 39.7831 23.2479C39.7831 24.1493 38.7013 24.6001 37.6196 24.6001C35.8167 24.6001 34.8251 24.1493 34.0138 23.6986L33.3828 26.6734C34.1941 27.034 35.7266 27.3945 37.3492 27.3945C41.0451 27.3945 43.479 25.5917 43.479 22.7071C43.479 19.2816 38.4309 19.0111 38.521 17.3885Z" fill="#0072FF"/>
</svg>
